<svg width="315" height="768" viewBox="0 0 315 768" fill="none" xmlns="http://www.w3.org/2000/svg">
<path d="M-109.706 713.736C-110.485 713.024 -111.024 712.089 -111.247 711.063C-111.456 710.117 -111.388 709.134 -111.051 708.234C-110.714 707.333 -110.123 706.552 -109.348 705.984L-29.299 647.421C-28.616 646.92 -27.8141 646.603 -26.969 646.5C-26.1238 646.397 -25.2633 646.511 -24.4687 646.832C-23.6769 647.153 -22.977 647.669 -22.4342 648.331C-21.8914 648.993 -21.5236 649.78 -21.3651 650.617L-6.33617 730.466C-6.18391 731.28 -6.23417 732.116 -6.48249 732.9C-6.73082 733.684 -7.16957 734.392 -7.7599 734.961C-8.35023 735.531 -9.07395 735.944 -9.86703 736.165C-10.6601 736.385 -11.4981 736.406 -12.3068 736.226L-107.392 714.948C-108.254 714.752 -109.051 714.334 -109.706 713.736ZM-29.7372 660.275L-94.4127 707.588L-17.5994 724.772L-29.7372 660.275Z" fill="#FDBFBC"/>
<path d="M74.1197 625.674C71.7453 623.506 69.8552 620.862 68.5758 617.92C67.2965 614.978 66.6574 611.805 66.7015 608.615C66.735 606.471 66.3088 604.339 65.4515 602.362C64.5943 600.384 63.3257 598.607 61.7312 597.15C60.1346 595.694 58.2496 594.592 56.2025 593.917C54.1554 593.243 51.9936 593.011 49.8622 593.238C46.6904 593.573 43.4741 593.225 40.429 592.219C37.3839 591.212 34.5803 589.57 32.2061 587.402C29.8318 585.234 27.9416 582.59 26.6623 579.648C25.3829 576.706 24.7439 573.533 24.7879 570.343C24.8215 568.199 24.3953 566.067 23.538 564.09C22.6807 562.112 21.4122 560.335 19.8177 558.878C18.2211 557.422 16.336 556.32 14.2889 555.645C12.2418 554.97 10.08 554.739 7.94865 554.966C6.97933 555.069 6.00369 554.781 5.23634 554.168C4.46899 553.554 3.97277 552.665 3.85683 551.695C3.741 550.725 4.01495 549.754 4.61842 548.996C5.22189 548.238 6.10545 547.755 7.07476 547.652C10.2474 547.318 13.4644 547.666 16.5103 548.672C19.5562 549.679 22.3607 551.321 24.736 553.488C27.1106 555.656 29.0006 558.3 30.2791 561.243C31.5577 564.185 32.1952 567.358 32.149 570.548C32.1169 572.692 32.544 574.824 33.4017 576.802C34.2594 578.78 35.5278 580.557 37.122 582.016C38.7184 583.471 40.6031 584.573 42.6497 585.247C44.6963 585.921 46.8575 586.152 48.9883 585.925C52.161 585.589 55.3781 585.937 58.4242 586.943C61.4702 587.95 64.2746 589.592 66.6496 591.761C69.0242 593.929 70.9141 596.572 72.1927 599.515C73.4712 602.457 74.1088 605.63 74.0626 608.82C74.0328 610.963 74.4618 613.093 75.3209 615.069C76.1799 617.045 77.4493 618.82 79.0438 620.276C80.6384 621.732 82.5213 622.835 84.5664 623.511C86.6115 624.188 88.7716 624.421 90.9019 624.197C94.0742 623.861 97.2912 624.208 100.337 625.215C103.383 626.221 106.187 627.863 108.562 630.032C110.936 632.2 112.826 634.844 114.105 637.786C115.384 640.729 116.022 643.902 115.976 647.093C115.975 647.579 115.877 648.059 115.688 648.504C115.499 648.95 115.223 649.352 114.876 649.688C114.528 650.024 114.117 650.287 113.665 650.462C113.213 650.637 112.73 650.72 112.243 650.706C111.757 650.693 111.276 650.583 110.829 650.383C110.383 650.183 109.979 649.897 109.642 649.542C109.304 649.187 109.04 648.769 108.864 648.314C108.687 647.858 108.603 647.373 108.615 646.887C108.646 644.744 108.218 642.613 107.359 640.637C106.501 638.66 105.231 636.885 103.636 635.428C102.042 633.972 100.158 632.869 98.1125 632.193C96.0669 631.518 93.9063 631.285 91.7758 631.511C88.6039 631.845 85.3877 631.498 82.3426 630.491C79.2975 629.484 76.4939 627.842 74.1197 625.674Z" fill="#FFBE4D"/>
<path d="M60.4673 640.63C58.0929 638.462 56.2028 635.818 54.9234 632.876C53.644 629.934 53.005 626.761 53.0491 623.571C53.0819 621.428 52.6553 619.296 51.7981 617.318C50.9409 615.341 49.6727 613.564 48.0788 612.106C46.4819 610.65 44.5968 609.548 42.5498 608.874C40.5028 608.199 38.3412 607.968 36.2098 608.195C33.0379 608.529 29.8217 608.182 26.7766 607.175C23.7315 606.168 20.9279 604.526 18.5537 602.358C16.1793 600.19 14.2892 597.546 13.0098 594.604C11.7305 591.662 11.0914 588.489 11.1355 585.299C11.1683 583.156 10.7418 581.024 9.88454 579.046C9.0273 577.069 7.75918 575.292 6.16524 573.834C4.56838 572.378 2.68327 571.276 0.636245 570.602C-1.41078 569.927 -3.57241 569.696 -5.70379 569.922C-6.67312 570.025 -7.64875 569.737 -8.4161 569.124C-9.18346 568.511 -9.67968 567.621 -9.79562 566.651C-9.91144 565.681 -9.63749 564.711 -9.03402 563.952C-8.43056 563.194 -7.54699 562.711 -6.57768 562.609C-3.40524 562.275 -0.188552 562.623 2.85694 563.63C5.90244 564.637 8.70643 566.279 11.0811 568.447C13.4552 570.615 15.3451 573.259 16.624 576.2C17.9029 579.142 18.5414 582.314 18.4966 585.504C18.4645 587.648 18.8916 589.78 19.7493 591.758C20.607 593.736 21.8754 595.514 23.4696 596.972C25.066 598.427 26.9507 599.529 28.9973 600.203C31.0439 600.877 33.2051 601.108 35.3359 600.881C38.5083 600.547 41.725 600.895 44.7705 601.902C47.816 602.909 50.62 604.551 52.9947 606.719C55.3688 608.887 57.2587 611.531 58.5376 614.473C59.8165 617.414 60.455 620.587 60.4102 623.776C60.3803 625.919 60.8093 628.049 61.6684 630.025C62.5275 632.001 63.7969 633.776 65.3914 635.232C66.9859 636.688 68.8688 637.791 70.914 638.467C72.9591 639.144 75.1191 639.377 77.2495 639.153C80.4216 638.818 83.6381 639.166 86.6834 640.173C89.7286 641.18 92.5324 642.822 94.9067 644.99C97.281 647.158 99.1711 649.802 100.45 652.744C101.729 655.686 102.368 658.858 102.324 662.049C102.322 662.535 102.224 663.015 102.035 663.46C101.846 663.906 101.57 664.308 101.223 664.644C100.876 664.98 100.465 665.243 100.013 665.418C99.561 665.593 99.0777 665.676 98.5909 665.662C98.1041 665.649 97.6235 665.539 97.1769 665.339C96.7304 665.139 96.3267 664.853 95.9892 664.498C95.6518 664.143 95.3873 663.725 95.2111 663.27C95.0349 662.814 94.9504 662.329 94.9626 661.843C94.9925 659.7 94.5635 657.57 93.7044 655.594C92.8453 653.619 91.5759 651.843 89.9814 650.387C88.3869 648.931 86.504 647.828 84.4589 647.152C82.4138 646.476 80.2537 646.242 78.1234 646.467C74.9515 646.801 71.7353 646.454 68.6902 645.447C65.6451 644.441 62.8415 642.798 60.4673 640.63Z" fill="#FFBE4D"/>
<path d="M46.8214 655.578C44.4462 653.412 42.5549 650.77 41.2742 647.829C39.9936 644.888 39.3531 641.716 39.3958 638.527C39.4286 636.383 39.0021 634.252 38.1449 632.274C37.2876 630.297 36.0195 628.52 34.4256 627.062C32.8287 625.606 30.9436 624.504 28.8966 623.83C26.8495 623.155 24.6879 622.923 22.5565 623.15C19.3852 623.484 16.1698 623.135 13.1259 622.127C10.0819 621.119 7.27996 619.475 4.90784 617.306C2.53292 615.138 0.64237 612.494 -0.637045 609.552C-1.91646 606.61 -2.55517 603.437 -2.51037 600.246C-2.47757 598.103 -2.9041 595.971 -3.76133 593.994C-4.61857 592.017 -5.8867 590.239 -7.48063 588.781C-9.0775 587.326 -10.9626 586.224 -13.0096 585.549C-15.0566 584.875 -17.2183 584.643 -19.3497 584.87C-20.319 584.972 -21.2946 584.685 -22.062 584.072C-22.8293 583.458 -23.3256 582.569 -23.4415 581.599C-23.5573 580.629 -23.2834 579.658 -22.6799 578.9C-22.0764 578.142 -21.1929 577.659 -20.2236 577.556C-17.0511 577.222 -13.8344 577.57 -10.7889 578.577C-7.74343 579.584 -4.93944 581.227 -2.56474 583.395C-0.190633 585.563 1.69921 588.206 2.97814 591.148C4.25706 594.09 4.89552 597.262 4.85073 600.452C4.81864 602.596 5.24574 604.728 6.10342 606.706C6.9611 608.684 8.22954 610.461 9.82373 611.92C11.4201 613.375 13.3048 614.476 15.3514 615.151C17.398 615.825 19.5592 616.056 21.69 615.828C24.8625 615.494 28.0792 615.843 31.1247 616.85C34.1702 617.856 36.9741 619.499 39.3488 621.667C41.723 623.835 43.6128 626.478 44.8917 629.42C46.1706 632.362 46.8091 635.534 46.7643 638.724C46.7345 640.867 47.1635 642.997 48.0226 644.973C48.8817 646.949 50.151 648.724 51.7455 650.18C53.3401 651.636 55.223 652.739 57.2681 653.415C59.3132 654.091 61.4733 654.325 63.6036 654.1C66.7758 653.766 69.9922 654.114 73.0375 655.121C76.0828 656.128 78.8865 657.77 81.2608 659.938C83.6352 662.106 85.5253 664.75 86.8045 667.692C88.0837 670.634 88.7224 673.806 88.6779 676.996C88.6536 677.964 88.2481 678.877 87.5494 679.539C86.8508 680.2 85.9153 680.556 84.9462 680.529C83.977 680.502 83.0523 680.094 82.3728 679.394C81.6933 678.694 81.3139 677.759 81.3168 676.791C81.3466 674.648 80.9176 672.518 80.0585 670.542C79.1994 668.566 77.9301 666.791 76.3356 665.335C74.741 663.879 72.8581 662.776 70.813 662.1C68.7679 661.424 66.6078 661.19 64.4775 661.414C61.3056 661.75 58.0891 661.403 55.0439 660.396C51.9986 659.39 49.1951 657.747 46.8214 655.578Z" fill="#FFBE4D"/>
<path d="M170.087 407.24C169.308 406.529 168.768 405.594 168.545 404.568C168.336 403.622 168.405 402.639 168.742 401.739C169.079 400.838 169.67 400.057 170.444 399.489L250.493 340.926C251.176 340.43 251.977 340.116 252.819 340.015C253.662 339.915 254.52 340.03 255.311 340.35C256.103 340.672 256.803 341.188 257.346 341.85C257.889 342.512 258.256 343.298 258.415 344.136L273.456 423.971C273.605 424.782 273.553 425.614 273.305 426.395C273.056 427.175 272.619 427.88 272.031 428.448C271.441 429.018 270.717 429.432 269.923 429.653C269.13 429.874 268.291 429.894 267.482 429.713L172.397 408.435C171.538 408.244 170.742 407.832 170.087 407.24ZM250.055 353.78L185.38 401.093L262.193 418.277L250.055 353.78Z" fill="#FDBFBC"/>
<path d="M-109.706 713.736C-110.485 713.024 -111.024 712.089 -111.247 711.063C-111.456 710.117 -111.388 709.134 -111.051 708.234C-110.714 707.333 -110.123 706.552 -109.348 705.984L-29.299 647.421C-28.616 646.92 -27.8141 646.603 -26.969 646.5C-26.1238 646.397 -25.2633 646.511 -24.4687 646.832C-23.6769 647.153 -22.977 647.669 -22.4342 648.331C-21.8914 648.993 -21.5236 649.78 -21.3651 650.617L-6.33617 730.466C-6.18391 731.28 -6.23417 732.116 -6.48249 732.9C-6.73082 733.684 -7.16957 734.392 -7.7599 734.961C-8.35023 735.531 -9.07395 735.944 -9.86703 736.165C-10.6601 736.385 -11.4981 736.406 -12.3068 736.226L-107.392 714.948C-108.254 714.752 -109.051 714.334 -109.706 713.736ZM-29.7372 660.275L-94.4127 707.588L-17.5994 724.772L-29.7372 660.275Z" fill="#FDBFBC"/>
<path d="M186.658 486.995L209.153 486.128C209.588 486.113 210.013 486.011 210.405 485.83C210.798 485.649 211.149 485.391 211.438 485.071C211.73 484.753 211.954 484.38 212.099 483.973C212.243 483.567 212.305 483.134 212.28 482.701C212.234 481.825 211.842 480.998 211.19 480.403C210.538 479.808 209.68 479.492 208.804 479.525L186.335 480.392L185.155 457.923C185.109 457.047 184.717 456.221 184.065 455.625C183.413 455.03 182.555 454.714 181.679 454.748C181.246 454.763 180.821 454.864 180.429 455.045C180.037 455.225 179.686 455.483 179.397 455.802C179.105 456.12 178.88 456.493 178.735 456.901C178.59 457.308 178.528 457.741 178.553 458.175L179.72 480.658L157.251 481.525C156.817 481.54 156.392 481.641 155.999 481.822C155.607 482.004 155.256 482.262 154.966 482.581C154.675 482.899 154.45 483.273 154.305 483.68C154.16 484.087 154.098 484.521 154.122 484.954C154.145 485.388 154.253 485.814 154.44 486.208C154.627 486.602 154.89 486.956 155.214 487.25C155.536 487.545 155.912 487.775 156.322 487.926C156.731 488.077 157.164 488.146 157.598 488.129L180.067 487.263L181.247 509.732C181.27 510.165 181.378 510.592 181.565 510.986C181.752 511.379 182.015 511.734 182.339 512.028C182.661 512.323 183.037 512.553 183.446 512.704C183.855 512.855 184.289 512.924 184.723 512.907C185.157 512.891 185.582 512.79 185.974 512.608C186.367 512.427 186.718 512.169 187.008 511.85C187.3 511.532 187.524 511.159 187.669 510.751C187.814 510.344 187.876 509.911 187.852 509.477L186.658 486.995Z" fill="#FFBE4D"/>
<path d="M140.052 312.992L135.27 248.232L146.044 247.588L150.824 312.347L140.052 312.992ZM138.576 251.128L142.904 309.728L147.513 309.461L143.192 250.853L138.576 251.128Z" fill="#BDEBE6"/>
<path d="M28.4728 338.673C48.5049 337.89 63.8913 320.798 62.8394 300.497C61.7874 280.196 44.6954 264.373 24.6634 265.157C4.63129 265.94 -10.7551 283.032 -9.70318 303.333C-8.65123 323.634 8.44075 339.456 28.4728 338.673Z" fill="#E89C38"/>
<path d="M62.7181 308.73C63.1425 309.963 64.0369 310.984 65.205 311.569C66.3731 312.153 67.7192 312.254 68.9477 311.848C70.1751 311.441 71.1838 310.561 71.7526 309.402C72.3214 308.243 72.4038 306.899 71.9819 305.666C71.6973 304.839 71.1975 304.101 70.5344 303.528C69.6195 303.105 68.7004 302.703 67.7668 302.323C67.0825 302.254 66.3935 302.33 65.7443 302.545C64.5172 302.953 63.5094 303.834 62.942 304.994C62.3746 306.153 62.2941 307.497 62.7181 308.73Z" fill="#FFBE4D"/>
<path d="M51.0869 317.875C52.3143 317.467 53.323 316.587 53.8917 315.428C54.4605 314.269 54.543 312.925 54.121 311.692C53.6953 310.459 52.8001 309.439 51.6318 308.855C50.4635 308.271 49.1174 308.171 47.8889 308.576C46.6608 308.983 45.6517 309.864 45.0833 311.024C44.5148 312.184 44.4336 313.528 44.8575 314.761C45.2821 315.994 46.1768 317.014 47.345 317.598C48.5132 318.182 49.8591 318.282 51.0869 317.875Z" fill="#FFBE4D"/>
<path d="M33.223 323.898C34.4511 323.491 35.4603 322.61 36.0287 321.451C36.5971 320.291 36.6783 318.946 36.2544 317.713C36.0447 317.102 35.7172 316.537 35.2906 316.05C34.864 315.562 34.3467 315.162 33.7682 314.873C33.1897 314.583 32.5614 314.41 31.9191 314.362C31.2768 314.314 30.6331 314.393 30.0248 314.594C28.7968 315.001 27.7875 315.881 27.2186 317.04C26.6497 318.2 26.5677 319.544 26.9906 320.777C27.4153 322.011 28.3101 323.032 29.4786 323.617C30.6471 324.203 31.9938 324.304 33.223 323.898Z" fill="#FFBE4D"/>
<path d="M15.3562 329.919C15.9646 329.718 16.5256 329.398 17.0073 328.978C17.4889 328.559 17.8818 328.047 18.1633 327.472C18.4448 326.898 18.6095 326.272 18.648 325.631C18.6865 324.989 18.598 324.345 18.3877 323.734C17.9633 322.501 17.0688 321.48 15.9007 320.895C14.7327 320.311 13.3865 320.21 12.158 320.615C10.9306 321.023 9.92193 321.903 9.35314 323.062C8.78435 324.221 8.70188 325.565 9.12384 326.798C9.5485 328.032 10.4433 329.053 11.6118 329.639C12.7803 330.224 14.127 330.325 15.3562 329.919Z" fill="#FFBE4D"/>
<path d="M-2.51277 335.943C-1.28535 335.536 -0.276645 334.656 0.29215 333.497C0.860945 332.337 0.943406 330.994 0.521449 329.76C0.0962573 328.528 -0.798328 327.508 -1.96615 326.923C-3.13397 326.338 -4.4797 326.237 -5.70823 326.642C-6.35786 326.856 -6.95254 327.206 -7.4528 327.67C-7.96445 328.529 -8.45124 329.396 -8.9132 330.271C-9.08545 331.125 -9.02438 332.012 -8.73639 332.84C-8.30805 334.068 -7.41315 335.084 -6.24709 335.666C-5.08102 336.247 -3.73854 336.347 -2.51277 335.943Z" fill="#FFBE4D"/>
<path d="M54.6169 298.929C54.7657 298.882 54.9113 298.826 55.0526 298.761C53.3869 298.478 51.708 298.26 50.0159 298.105C50.6588 298.614 51.4164 298.955 52.2199 299.099C53.0234 299.243 53.8474 299.185 54.6169 298.929Z" fill="#FFBE4D"/>
<path d="M30.5423 301.826C30.9676 303.059 31.8623 304.08 33.0304 304.665C34.1985 305.249 35.5445 305.35 36.7733 304.946C38.001 304.537 39.0097 303.657 39.5782 302.497C40.1466 301.337 40.2283 299.993 39.8054 298.759C39.7393 298.572 39.6624 298.389 39.5749 298.21C36.4441 298.473 33.3417 298.978 30.2955 299.72C30.2183 300.429 30.299 301.148 30.5318 301.827L30.5423 301.826Z" fill="#FFBE4D"/>
<path d="M12.6707 307.845C13.0962 309.078 13.9915 310.099 15.1603 310.684C16.329 311.269 17.6758 311.37 18.9053 310.966C20.1337 310.557 21.1432 309.677 21.7125 308.517C22.2817 307.357 22.3642 306.012 21.9419 304.778C21.7082 304.098 21.3284 303.476 20.8296 302.955C17.9451 304.177 15.1618 305.619 12.5042 307.269C12.5448 307.464 12.5969 307.656 12.6602 307.845L12.6707 307.845Z" fill="#FFBE4D"/>
<path d="M4.1882 313.572C2.92645 314.699 1.72026 315.882 0.563545 317.105C0.716967 317.07 0.867348 317.028 1.01745 316.98C1.79196 316.724 2.48767 316.279 3.0414 315.684C3.59513 315.089 3.98933 314.363 4.1882 313.572Z" fill="#FFBE4D"/>
<path d="M101.423 364.498C101.739 365.417 102.319 366.226 103.09 366.823C103.861 367.42 104.788 367.778 105.755 367.853C106.203 364.616 106.388 361.345 106.307 358.071C105.681 358.029 105.055 358.11 104.463 358.307C103.854 358.508 103.292 358.828 102.809 359.248C102.326 359.668 101.933 360.18 101.65 360.755C101.368 361.33 101.203 361.956 101.164 362.598C101.125 363.241 101.213 363.886 101.423 364.498Z" fill="#FFBE4D"/>
<path d="M86.5845 364.333C85.3571 364.741 84.3484 365.621 83.7796 366.78C83.2108 367.939 83.1284 369.283 83.5504 370.516C83.9755 371.749 84.8701 372.769 86.0379 373.354C87.2058 373.938 88.5515 374.039 89.78 373.635C91.0074 373.227 92.0161 372.347 92.5849 371.188C93.1537 370.029 93.2361 368.685 92.8142 367.452C92.3898 366.219 91.4954 365.198 90.3273 364.613C89.1592 364.028 87.813 363.928 86.5845 364.333Z" fill="#FFBE4D"/>
<path d="M68.7175 370.354C67.4901 370.762 66.4814 371.642 65.9126 372.801C65.3438 373.96 65.2614 375.304 65.6833 376.537C66.1085 377.77 67.0031 378.79 68.1709 379.375C69.3387 379.959 70.6844 380.06 71.9129 379.656C73.1403 379.248 74.149 378.368 74.7178 377.209C75.2866 376.05 75.3691 374.706 74.9471 373.473C74.5219 372.241 73.6274 371.22 72.4595 370.636C71.2917 370.051 69.946 369.95 68.7175 370.354Z" fill="#FFBE4D"/>
<path d="M50.8511 376.376C49.6236 376.784 48.6151 377.664 48.0468 378.824C47.4785 379.984 47.3968 381.328 47.8196 382.561C48.244 383.794 49.1385 384.815 50.3065 385.4C51.4746 385.985 52.8208 386.085 54.0493 385.68C55.2767 385.272 56.2854 384.392 56.8542 383.233C57.423 382.074 57.5054 380.73 57.0835 379.497C56.6588 378.263 55.764 377.242 54.5955 376.657C53.427 376.071 52.0803 375.97 50.8511 376.376Z" fill="#FFBE4D"/>
<path d="M32.9847 382.402C32.3763 382.603 31.8152 382.923 31.3335 383.342C30.8518 383.762 30.4588 384.273 30.177 384.847C29.8953 385.422 29.7302 386.047 29.6914 386.688C29.6525 387.33 29.7405 387.974 29.9505 388.585C30.3757 389.817 31.2702 390.838 32.4381 391.422C33.6059 392.007 34.9516 392.108 36.1801 391.703C37.4076 391.295 38.4161 390.415 38.9844 389.255C39.5527 388.095 39.6344 386.752 39.2115 385.518C38.7866 384.286 37.8924 383.266 36.725 382.682C35.5576 382.098 34.2125 381.997 32.9847 382.402Z" fill="#FFBE4D"/>
<path d="M15.1132 388.429C13.8858 388.836 12.8771 389.716 12.3083 390.875C11.7395 392.034 11.6571 393.378 12.079 394.612C12.5047 395.844 13.3999 396.864 14.5683 397.448C15.7366 398.033 17.0826 398.133 18.3111 397.727C19.5385 397.32 20.5472 396.44 21.116 395.281C21.6848 394.122 21.7672 392.778 21.3453 391.545C20.9196 390.312 20.0244 389.292 18.856 388.708C17.6877 388.124 16.3417 388.023 15.1132 388.429Z" fill="#FFBE4D"/>
<path d="M3.49088 397.557C3.06735 396.326 2.17462 395.307 1.00882 394.724C-0.156986 394.14 -1.50051 394.04 -2.7266 394.445C-3.31796 394.64 -3.86429 394.949 -4.33546 395.353C-2.38408 397.999 -0.224511 400.486 2.12224 402.791C2.84381 402.158 3.35883 401.323 3.60238 400.392C3.84594 399.461 3.80715 398.474 3.49088 397.557Z" fill="#FFBE4D"/>
<path d="M90.1432 345.386C88.9152 345.793 87.9058 346.673 87.3369 347.832C86.768 348.992 86.686 350.336 87.109 351.569C87.5342 352.802 88.4288 353.822 89.5966 354.407C90.7644 354.991 92.1101 355.092 93.3386 354.688C94.566 354.28 95.5747 353.4 96.1435 352.241C96.7123 351.082 96.7948 349.738 96.3728 348.505C95.9476 347.272 95.053 346.252 93.8852 345.667C92.7174 345.083 91.3717 344.982 90.1432 345.386Z" fill="#FFBE4D"/>
<path d="M75.4754 360.717C76.7028 360.309 77.7115 359.429 78.2803 358.27C78.8491 357.111 78.9316 355.767 78.5096 354.534C78.0839 353.301 77.1887 352.281 76.0203 351.697C74.852 351.113 73.506 351.013 72.2775 351.418C71.0494 351.826 70.0402 352.706 69.4718 353.866C68.9034 355.026 68.8222 356.37 69.246 357.603C69.6706 358.836 70.5654 359.856 71.7336 360.44C72.9017 361.024 74.2477 361.124 75.4754 360.717Z" fill="#FFBE4D"/>
<path d="M57.6109 366.74C58.8389 366.333 59.8481 365.452 60.4165 364.292C60.985 363.133 61.0662 361.788 60.6423 360.555C60.4326 359.944 60.1051 359.379 59.6785 358.891C59.2519 358.404 58.7346 358.004 58.156 357.715C57.5775 357.425 56.9492 357.251 56.3069 357.204C55.6646 357.156 55.0209 357.235 54.4126 357.436C53.1846 357.843 52.1753 358.723 51.6064 359.882C51.0375 361.042 50.9555 362.386 51.3785 363.619C51.8031 364.853 52.6979 365.874 53.8665 366.459C55.035 367.044 56.3817 367.145 57.6109 366.74Z" fill="#FFBE4D"/>
<path d="M39.7448 372.761C40.9729 372.354 41.982 371.474 42.5504 370.314C43.1189 369.154 43.2001 367.809 42.7762 366.576C42.3518 365.343 41.4574 364.322 40.2893 363.737C39.1212 363.153 37.7751 363.052 36.5466 363.457C35.3192 363.865 34.3105 364.745 33.7417 365.904C33.1729 367.063 33.0904 368.407 33.5124 369.64C33.9371 370.874 34.8319 371.895 36.0004 372.481C37.1689 373.066 38.5156 373.167 39.7448 372.761Z" fill="#FFBE4D"/>
<path d="M18.6792 369.473C17.4518 369.881 16.4432 370.761 15.8744 371.92C15.3056 373.079 15.2231 374.423 15.6451 375.656C16.07 376.889 16.965 377.91 18.1336 378.495C19.3022 379.079 20.6487 379.179 21.8772 378.772C23.1052 378.365 24.1145 377.485 24.6834 376.326C25.2523 375.167 25.3343 373.823 24.9113 372.589C24.4856 371.357 23.5904 370.337 22.4221 369.752C21.2538 369.168 19.9077 369.068 18.6792 369.473Z" fill="#FFBE4D"/>
<path d="M0.826671 375.507C-0.400809 375.915 -1.40932 376.796 -1.97762 377.956C-2.54592 379.115 -2.6276 380.459 -2.20476 381.693C-1.7804 382.926 -0.885927 383.947 0.28215 384.531C1.45023 385.116 2.79637 385.217 4.02485 384.811C5.25225 384.403 6.26094 383.523 6.82973 382.364C7.39852 381.205 7.48098 379.862 7.05903 378.628C6.63437 377.395 5.73955 376.373 4.57104 375.788C3.40254 375.203 2.05586 375.102 0.826671 375.507Z" fill="#FFBE4D"/>
<path d="M79.4646 402.233C78.2351 402.641 77.2249 403.522 76.6558 404.683C76.0867 405.845 76.0054 407.19 76.4298 408.425C76.7456 409.354 77.3328 410.17 78.1148 410.766C80.7632 409.091 83.2749 407.21 85.6273 405.143C85.1609 403.964 84.2602 403.004 83.1124 402.462C81.9647 401.92 80.6582 401.838 79.4646 402.233Z" fill="#FFBE4D"/>
<path d="M67.8326 411.375C67.4069 410.142 66.5117 409.122 65.3434 408.538C64.175 407.954 62.829 407.854 61.6005 408.259C60.3725 408.666 59.3632 409.546 58.7943 410.705C58.2253 411.864 58.1434 413.208 58.5663 414.442C58.8782 415.35 59.4475 416.151 60.2044 416.746C60.9612 417.341 61.8726 417.704 62.8263 417.791C63.4475 417.607 64.0666 417.432 64.6843 417.23C65.302 417.028 65.9049 416.793 66.5111 416.57C67.2166 415.935 67.7177 415.104 67.9526 414.181C68.1874 413.258 68.1457 412.282 67.8326 411.375Z" fill="#FFBE4D"/>
<path d="M43.7314 414.275C42.5394 414.67 41.5523 415.511 40.9757 416.624C40.3992 417.737 40.2778 419.035 40.6368 420.248C43.781 420.497 46.9364 420.503 50.0747 420.263C50.3277 419.324 50.2927 418.327 49.9741 417.401C49.7643 416.788 49.4364 416.222 49.009 415.733C48.5816 415.244 48.0632 414.843 47.4834 414.553C46.9036 414.263 46.2737 414.089 45.6299 414.041C44.9861 413.993 44.341 414.073 43.7314 414.275Z" fill="#FFBE4D"/>
<path d="M97.8561 383.462C98.2459 384.605 99.0426 385.568 100.093 386.168C101.498 383.267 102.67 380.257 103.6 377.166C102.704 376.943 101.765 376.977 100.895 377.265C100.285 377.467 99.7229 377.787 99.2403 378.208C98.7577 378.629 98.3641 379.141 98.0819 379.717C97.7998 380.292 97.6346 380.919 97.5959 381.562C97.5571 382.205 97.6456 382.85 97.8561 383.462Z" fill="#FFBE4D"/>
<path d="M83.0229 383.283C81.7955 383.691 80.7868 384.571 80.218 385.73C79.6492 386.889 79.5668 388.232 79.9887 389.466C80.4144 390.698 81.3097 391.719 82.478 392.303C83.6463 392.887 84.9923 392.987 86.2208 392.582C87.4489 392.174 88.4581 391.294 89.0265 390.134C89.5949 388.974 89.6761 387.63 89.2523 386.396C88.8268 385.164 87.932 384.145 86.7641 383.561C85.5962 382.977 84.2507 382.877 83.0229 383.283Z" fill="#FFBE4D"/>
<path d="M65.1564 389.304C63.929 389.712 62.9203 390.592 62.3515 391.751C61.7827 392.91 61.7003 394.254 62.1222 395.487C62.5479 396.72 63.4432 397.74 64.6115 398.324C65.7798 398.908 67.1258 399.009 68.3543 398.603C69.5823 398.196 70.5917 397.316 71.1606 396.157C71.7295 394.998 71.8115 393.654 71.3885 392.42C70.9628 391.188 70.0676 390.167 68.8993 389.583C67.7309 388.999 66.3849 388.899 65.1564 389.304Z" fill="#FFBE4D"/>
<path d="M47.2894 395.325C46.062 395.733 45.0533 396.613 44.4845 397.772C43.9157 398.931 43.8333 400.275 44.2552 401.508C44.6796 402.741 45.5741 403.762 46.7421 404.347C47.9102 404.932 49.2564 405.032 50.4849 404.627C51.7123 404.219 52.721 403.339 53.2897 402.18C53.8585 401.021 53.941 399.677 53.519 398.444C53.0938 397.211 52.1993 396.191 51.0315 395.606C49.8636 395.022 48.5179 394.921 47.2894 395.325Z" fill="#FFBE4D"/>
<path d="M29.423 401.347C28.1955 401.755 27.187 402.635 26.6187 403.795C26.0504 404.955 25.9687 406.298 26.3915 407.532C26.8159 408.765 27.7104 409.786 28.8785 410.371C30.0465 410.955 31.3927 411.056 32.6212 410.65C33.8492 410.244 34.8585 409.364 35.4274 408.204C35.9964 407.045 36.0783 405.701 35.6554 404.468C35.2307 403.234 34.3359 402.213 33.1674 401.627C31.9988 401.042 30.6522 400.941 29.423 401.347Z" fill="#FFBE4D"/>
<path d="M11.5771 407.366C10.7093 407.653 9.94371 408.181 9.3684 408.888C12.0055 410.79 14.786 412.483 17.6839 413.951C18.1482 412.853 18.1884 411.617 17.7968 410.48C17.3738 409.249 16.481 408.229 15.3146 407.644C14.1482 407.06 12.8038 406.96 11.5771 407.366Z" fill="#FFBE4D"/>
<path d="M90.6604 332.631C91.0861 333.864 91.9812 334.884 93.1493 335.468C94.3174 336.052 95.6633 336.152 96.8916 335.747C97.6773 335.489 98.3814 335.033 98.9371 334.424C99.4928 333.815 99.8818 333.072 100.067 332.266C99.0856 330.271 97.9945 328.331 96.7989 326.455C95.7871 326.113 94.6956 326.11 93.6914 326.447C92.4641 326.855 91.4558 327.735 90.8876 328.895C90.3193 330.054 90.2377 331.398 90.6604 332.631Z" fill="#FFBE4D"/>
<path d="M79.0397 341.77C80.2678 341.362 81.2769 340.482 81.8454 339.322C82.4138 338.162 82.495 336.818 82.0711 335.584C81.6459 334.352 80.7514 333.331 79.5835 332.747C78.4157 332.162 77.07 332.061 75.8415 332.466C74.614 332.874 73.6055 333.754 73.0372 334.914C72.4689 336.074 72.3872 337.417 72.8101 338.651C73.2344 339.884 74.1289 340.905 75.297 341.49C76.4651 342.074 77.8112 342.175 79.0397 341.77Z" fill="#FFBE4D"/>
<path d="M61.168 347.796C62.3955 347.388 63.404 346.507 63.9723 345.348C64.5406 344.188 64.6223 342.844 64.1994 341.611C63.7751 340.378 62.8806 339.357 61.7125 338.772C60.5444 338.187 59.1983 338.086 57.9698 338.492C56.7424 338.9 55.7337 339.78 55.1649 340.939C54.5961 342.098 54.5136 343.441 54.9356 344.675C55.3603 345.908 56.2551 346.93 57.4236 347.515C58.5921 348.1 59.9388 348.201 61.168 347.796Z" fill="#FFBE4D"/>
<path d="M43.9942 353.533C46.3832 352.297 47.295 349.336 46.0309 346.919C44.7667 344.502 41.8053 343.545 39.4163 344.781C37.0273 346.017 36.1155 348.979 37.3796 351.396C38.6438 353.812 41.6052 354.77 43.9942 353.533Z" fill="#FFBE4D"/>
<path d="M25.4373 359.836C26.6648 359.428 27.6735 358.548 28.2422 357.389C28.811 356.23 28.8935 354.886 28.4715 353.653C28.0464 352.42 27.1518 351.4 25.984 350.815C24.8161 350.231 23.4704 350.13 22.2419 350.534C21.0138 350.942 20.0047 351.822 19.4362 352.982C18.8678 354.142 18.7866 355.486 19.2105 356.72C19.6353 357.952 20.5296 358.972 21.697 359.556C22.8644 360.14 24.2095 360.241 25.4373 359.836Z" fill="#FFBE4D"/>
<path d="M3.82043 365.573C6.2613 366.79 9.20398 365.821 10.3931 363.408C11.5822 360.995 10.5675 358.053 8.12661 356.835C5.68574 355.618 2.74306 356.587 1.55395 359C0.36483 361.413 1.37957 364.355 3.82043 365.573Z" fill="#FFBE4D"/>
<path d="M82.5989 322.822C83.8264 322.414 84.8349 321.534 85.4032 320.374C85.9715 319.214 86.0532 317.871 85.6303 316.637C85.206 315.404 84.3115 314.383 83.1434 313.798C81.9753 313.214 80.6292 313.113 79.4007 313.518C78.1733 313.926 77.1646 314.806 76.5958 315.965C76.027 317.124 75.9446 318.468 76.3665 319.701C76.7912 320.935 77.686 321.956 78.8545 322.542C80.023 323.127 81.3697 323.228 82.5989 322.822Z" fill="#FFBE4D"/>
<path d="M64.7317 328.843C65.9591 328.436 66.9678 327.556 67.5366 326.397C68.1054 325.238 68.1879 323.894 67.7659 322.661C67.3399 321.429 66.4452 320.409 65.2776 319.825C64.1101 319.24 62.7648 319.138 61.5363 319.542C60.3083 319.949 59.2989 320.829 58.73 321.988C58.1611 323.147 58.0791 324.491 58.5021 325.725C58.9273 326.957 59.8219 327.978 60.9897 328.562C62.1575 329.147 63.5032 329.248 64.7317 328.843Z" fill="#FFBE4D"/>
<path d="M46.8652 334.865C48.0926 334.457 49.1013 333.577 49.6701 332.418C50.2389 331.259 50.3213 329.915 49.8994 328.682C49.4737 327.449 48.5785 326.429 47.4101 325.845C46.2418 325.261 44.8958 325.161 43.6673 325.566C42.4393 325.973 41.43 326.853 40.861 328.012C40.2921 329.171 40.2101 330.515 40.6331 331.749C41.0588 332.981 41.954 334.002 43.1224 334.586C44.2907 335.17 45.6367 335.27 46.8652 334.865Z" fill="#FFBE4D"/>
<path d="M29.0039 340.891C30.2313 340.483 31.24 339.603 31.8088 338.444C32.3776 337.285 32.46 335.941 32.0381 334.708C31.6123 333.475 30.7171 332.455 29.5488 331.871C28.3805 331.287 27.0344 331.187 25.806 331.592C24.5802 332 23.573 332.879 23.0052 334.037C22.4374 335.195 22.3552 336.537 22.7767 337.77C22.9862 338.38 23.3134 338.946 23.7397 339.433C24.166 339.92 24.683 340.32 25.2613 340.61C25.8395 340.9 26.4677 341.074 27.1098 341.122C27.752 341.17 28.3956 341.092 29.0039 340.891Z" fill="#FFBE4D"/>
<path d="M11.1345 346.909C12.3626 346.502 13.3718 345.622 13.9402 344.462C14.5086 343.302 14.5899 341.958 14.166 340.724C13.7416 339.491 12.8471 338.47 11.6791 337.885C10.511 337.301 9.16483 337.2 7.93635 337.606C6.70894 338.013 5.70025 338.893 5.13146 340.052C4.56267 341.211 4.48022 342.555 4.90218 343.788C5.32684 345.022 6.22166 346.043 7.39017 346.629C8.55868 347.214 9.90536 347.315 11.1345 346.909Z" fill="#FFBE4D"/>
<path d="M-8.84038 480.634C-9.34204 480.177 -9.74326 479.62 -10.018 479.001C-10.2927 478.381 -10.4347 477.713 -10.4349 477.039C-10.4482 472.407 -9.54203 467.83 -7.76871 463.575C-5.99539 459.32 -3.39016 455.47 -0.103842 452.249C3.16445 449.01 7.05224 446.459 11.3345 444.745C15.6168 443.031 20.2086 442.188 24.8441 442.264C34.1998 442.402 43.1701 446.244 49.7868 452.945C56.4034 459.647 60.1261 468.661 60.1381 478.01C60.137 478.641 60.0114 479.264 59.7686 479.844C59.5257 480.423 59.1704 480.947 58.7229 481.387C58.2753 481.826 57.7444 482.171 57.1603 482.404C56.5762 482.636 55.9504 482.75 55.3188 482.74C54.6871 482.73 54.0618 482.596 53.4787 482.345C52.8955 482.095 52.3659 481.732 51.9201 481.279C51.4743 480.825 51.1211 480.29 50.8805 479.703C50.64 479.116 50.5168 478.489 50.5181 477.858C50.5228 474.492 49.8608 471.149 48.5703 468.022C47.2798 464.895 45.3863 462.046 42.9989 459.638C40.6205 457.216 37.7914 455.283 34.6755 453.95C31.5596 452.618 28.2187 451.913 24.8463 451.876C21.4742 451.82 18.1338 452.433 15.0186 453.68C11.9033 454.927 9.07499 456.782 6.69734 459.138C4.30843 461.482 2.4145 464.283 1.12494 467.378C-0.164632 470.473 -0.824297 473.801 -0.815959 477.17C-0.817106 477.802 -0.942676 478.425 -1.18551 479.004C-1.42834 479.583 -1.78368 480.108 -2.23121 480.547C-2.67875 480.986 -3.20972 481.332 -3.79381 481.564C-4.37789 481.796 -5.00365 481.911 -5.63533 481.901C-6.81816 481.887 -7.96012 481.436 -8.84038 480.634Z" fill="#BDEBE6"/>
<path d="M31.4372 136.779C31.9503 136.349 32.5501 136.033 33.1974 135.852C33.8447 135.671 34.5248 135.63 35.1931 135.731C39.7926 136.398 44.2266 137.968 48.2385 140.351C52.2503 142.735 55.7602 145.883 58.5649 149.614C61.3892 153.33 63.4554 157.559 64.6438 162.056C65.8321 166.553 66.1191 171.228 65.488 175.811C64.2331 185.064 59.349 193.389 51.9076 198.961C44.4662 204.533 35.0756 206.895 25.7967 205.53C24.5325 205.342 23.3877 204.661 22.614 203.637C21.8402 202.613 21.5007 201.329 21.6701 200.068C21.7542 199.443 21.9608 198.843 22.2783 198.301C22.5957 197.76 23.0177 197.287 23.5201 196.911C24.0225 196.535 24.5956 196.262 25.2065 196.109C25.8175 195.956 26.4543 195.924 27.0808 196.017C30.4217 196.52 33.82 196.356 37.079 195.537C40.3381 194.717 43.3933 193.258 46.0679 191.243C48.7567 189.241 51.0143 186.721 52.7101 183.828C54.4059 180.934 55.5062 177.726 55.9475 174.388C56.4012 171.055 56.1886 167.656 55.322 164.387C54.4553 161.118 52.9518 158.044 50.8982 155.342C48.8571 152.627 46.3034 150.335 43.3845 148.6C40.4656 146.865 37.2395 145.721 33.8927 145.233C33.2663 145.141 32.6626 144.926 32.1159 144.602C31.5693 144.277 31.0905 143.849 30.7068 143.342C30.3231 142.835 30.0421 142.259 29.8798 141.646C29.7175 141.034 29.6772 140.397 29.761 139.772C29.9271 138.596 30.5243 137.53 31.4372 136.779Z" fill="#937AB9"/>
<path d="M74.1197 625.674C71.7453 623.506 69.8552 620.862 68.5758 617.92C67.2965 614.978 66.6574 611.805 66.7015 608.615C66.735 606.471 66.3088 604.339 65.4515 602.362C64.5943 600.384 63.3257 598.607 61.7312 597.15C60.1346 595.694 58.2496 594.592 56.2025 593.917C54.1554 593.243 51.9936 593.011 49.8622 593.238C46.6904 593.573 43.4741 593.225 40.429 592.219C37.3839 591.212 34.5803 589.57 32.2061 587.402C29.8318 585.234 27.9416 582.59 26.6623 579.648C25.3829 576.706 24.7439 573.533 24.7879 570.343C24.8215 568.199 24.3953 566.067 23.538 564.09C22.6807 562.112 21.4122 560.335 19.8177 558.878C18.2211 557.422 16.336 556.32 14.2889 555.645C12.2418 554.97 10.08 554.739 7.94865 554.966C6.97933 555.069 6.00369 554.781 5.23634 554.168C4.46899 553.554 3.97277 552.665 3.85683 551.695C3.741 550.725 4.01495 549.754 4.61842 548.996C5.22189 548.238 6.10545 547.755 7.07476 547.652C10.2474 547.318 13.4644 547.666 16.5103 548.672C19.5562 549.679 22.3607 551.321 24.736 553.488C27.1106 555.656 29.0006 558.3 30.2791 561.243C31.5577 564.185 32.1952 567.358 32.149 570.548C32.1169 572.692 32.544 574.824 33.4017 576.802C34.2594 578.78 35.5278 580.557 37.122 582.016C38.7184 583.471 40.6031 584.573 42.6497 585.247C44.6963 585.921 46.8575 586.152 48.9883 585.925C52.161 585.589 55.3781 585.937 58.4242 586.943C61.4702 587.95 64.2746 589.592 66.6496 591.761C69.0242 593.929 70.9141 596.572 72.1927 599.515C73.4712 602.457 74.1088 605.63 74.0626 608.82C74.0328 610.963 74.4618 613.093 75.3209 615.069C76.1799 617.045 77.4493 618.82 79.0438 620.276C80.6384 621.732 82.5213 622.835 84.5664 623.511C86.6115 624.188 88.7716 624.421 90.9019 624.197C94.0742 623.861 97.2912 624.208 100.337 625.215C103.383 626.221 106.187 627.863 108.562 630.032C110.936 632.2 112.826 634.844 114.105 637.786C115.384 640.729 116.022 643.902 115.976 647.093C115.975 647.579 115.877 648.059 115.688 648.504C115.499 648.95 115.223 649.352 114.876 649.688C114.528 650.024 114.117 650.287 113.665 650.462C113.213 650.637 112.73 650.72 112.243 650.706C111.757 650.693 111.276 650.583 110.829 650.383C110.383 650.183 109.979 649.897 109.642 649.542C109.304 649.187 109.04 648.769 108.864 648.314C108.687 647.858 108.603 647.373 108.615 646.887C108.646 644.744 108.218 642.613 107.359 640.637C106.501 638.66 105.231 636.885 103.636 635.428C102.042 633.972 100.158 632.869 98.1125 632.193C96.0669 631.518 93.9063 631.285 91.7758 631.511C88.6039 631.845 85.3877 631.498 82.3426 630.491C79.2975 629.484 76.4939 627.842 74.1197 625.674Z" fill="#FFBE4D"/>
<path d="M60.4673 640.63C58.0929 638.462 56.2028 635.818 54.9234 632.876C53.644 629.934 53.005 626.761 53.0491 623.571C53.0819 621.428 52.6553 619.296 51.7981 617.318C50.9409 615.341 49.6727 613.564 48.0788 612.106C46.4819 610.65 44.5968 609.548 42.5498 608.874C40.5028 608.199 38.3412 607.968 36.2098 608.195C33.0379 608.529 29.8217 608.182 26.7766 607.175C23.7315 606.168 20.9279 604.526 18.5537 602.358C16.1793 600.19 14.2892 597.546 13.0098 594.604C11.7305 591.662 11.0914 588.489 11.1355 585.299C11.1683 583.156 10.7418 581.024 9.88454 579.046C9.0273 577.069 7.75918 575.292 6.16524 573.834C4.56838 572.378 2.68327 571.276 0.636245 570.602C-1.41078 569.927 -3.57241 569.696 -5.70379 569.922C-6.67312 570.025 -7.64875 569.737 -8.4161 569.124C-9.18346 568.511 -9.67968 567.621 -9.79562 566.651C-9.91144 565.681 -9.63749 564.711 -9.03402 563.952C-8.43056 563.194 -7.54699 562.711 -6.57768 562.609C-3.40524 562.275 -0.188552 562.623 2.85694 563.63C5.90244 564.637 8.70643 566.279 11.0811 568.447C13.4552 570.615 15.3451 573.259 16.624 576.2C17.9029 579.142 18.5414 582.314 18.4966 585.504C18.4645 587.648 18.8916 589.78 19.7493 591.758C20.607 593.736 21.8754 595.514 23.4696 596.972C25.066 598.427 26.9507 599.529 28.9973 600.203C31.0439 600.877 33.2051 601.108 35.3359 600.881C38.5083 600.547 41.725 600.895 44.7705 601.902C47.816 602.909 50.62 604.551 52.9947 606.719C55.3688 608.887 57.2587 611.531 58.5376 614.473C59.8165 617.414 60.455 620.587 60.4102 623.776C60.3803 625.919 60.8093 628.049 61.6684 630.025C62.5275 632.001 63.7969 633.776 65.3914 635.232C66.9859 636.688 68.8688 637.791 70.914 638.467C72.9591 639.144 75.1191 639.377 77.2495 639.153C80.4216 638.818 83.6381 639.166 86.6834 640.173C89.7286 641.18 92.5324 642.822 94.9067 644.99C97.281 647.158 99.1711 649.802 100.45 652.744C101.729 655.686 102.368 658.858 102.324 662.049C102.322 662.535 102.224 663.015 102.035 663.46C101.846 663.906 101.57 664.308 101.223 664.644C100.876 664.98 100.465 665.243 100.013 665.418C99.561 665.593 99.0777 665.676 98.5909 665.662C98.1041 665.649 97.6235 665.539 97.1769 665.339C96.7304 665.139 96.3267 664.853 95.9892 664.498C95.6518 664.143 95.3873 663.725 95.2111 663.27C95.0349 662.814 94.9504 662.329 94.9626 661.843C94.9925 659.7 94.5635 657.57 93.7044 655.594C92.8453 653.619 91.5759 651.843 89.9814 650.387C88.3869 648.931 86.504 647.828 84.4589 647.152C82.4138 646.476 80.2537 646.242 78.1234 646.467C74.9515 646.801 71.7353 646.454 68.6902 645.447C65.6451 644.441 62.8415 642.798 60.4673 640.63Z" fill="#FFBE4D"/>
<path d="M46.8214 655.578C44.4462 653.412 42.5549 650.77 41.2742 647.829C39.9936 644.888 39.3531 641.716 39.3958 638.527C39.4286 636.383 39.0021 634.252 38.1449 632.274C37.2876 630.297 36.0195 628.52 34.4256 627.062C32.8287 625.606 30.9436 624.504 28.8966 623.83C26.8495 623.155 24.6879 622.923 22.5565 623.15C19.3852 623.484 16.1698 623.135 13.1259 622.127C10.0819 621.119 7.27996 619.475 4.90784 617.306C2.53292 615.138 0.64237 612.494 -0.637045 609.552C-1.91646 606.61 -2.55517 603.437 -2.51037 600.246C-2.47757 598.103 -2.9041 595.971 -3.76133 593.994C-4.61857 592.017 -5.8867 590.239 -7.48063 588.781C-9.0775 587.326 -10.9626 586.224 -13.0096 585.549C-15.0566 584.875 -17.2183 584.643 -19.3497 584.87C-20.319 584.972 -21.2946 584.685 -22.062 584.072C-22.8293 583.458 -23.3256 582.569 -23.4415 581.599C-23.5573 580.629 -23.2834 579.658 -22.6799 578.9C-22.0764 578.142 -21.1929 577.659 -20.2236 577.556C-17.0511 577.222 -13.8344 577.57 -10.7889 578.577C-7.74343 579.584 -4.93944 581.227 -2.56474 583.395C-0.190633 585.563 1.69921 588.206 2.97814 591.148C4.25706 594.09 4.89552 597.262 4.85073 600.452C4.81864 602.596 5.24574 604.728 6.10342 606.706C6.9611 608.684 8.22954 610.461 9.82373 611.92C11.4201 613.375 13.3048 614.476 15.3514 615.151C17.398 615.825 19.5592 616.056 21.69 615.828C24.8625 615.494 28.0792 615.843 31.1247 616.85C34.1702 617.856 36.9741 619.499 39.3488 621.667C41.723 623.835 43.6128 626.478 44.8917 629.42C46.1706 632.362 46.8091 635.534 46.7643 638.724C46.7345 640.867 47.1635 642.997 48.0226 644.973C48.8817 646.949 50.151 648.724 51.7455 650.18C53.3401 651.636 55.223 652.739 57.2681 653.415C59.3132 654.091 61.4733 654.325 63.6036 654.1C66.7758 653.766 69.9922 654.114 73.0375 655.121C76.0828 656.128 78.8865 657.77 81.2608 659.938C83.6352 662.106 85.5253 664.75 86.8045 667.692C88.0837 670.634 88.7224 673.806 88.6779 676.996C88.6536 677.964 88.2481 678.877 87.5494 679.539C86.8508 680.2 85.9153 680.556 84.9462 680.529C83.977 680.502 83.0523 680.094 82.3728 679.394C81.6933 678.694 81.3139 677.759 81.3168 676.791C81.3466 674.648 80.9176 672.518 80.0585 670.542C79.1994 668.566 77.9301 666.791 76.3356 665.335C74.741 663.879 72.8581 662.776 70.813 662.1C68.7679 661.424 66.6078 661.19 64.4775 661.414C61.3056 661.75 58.0891 661.403 55.0439 660.396C51.9986 659.39 49.1951 657.747 46.8214 655.578Z" fill="#FFBE4D"/>
<path d="M108.918 520.142L83.6002 529.387L93.1397 554.999L118.457 545.753L108.918 520.142Z" fill="#937AB9"/>
<path d="M-136.409 127.448C-137.188 126.737 -137.727 125.802 -137.95 124.776C-138.159 123.83 -138.09 122.847 -137.754 121.946C-137.417 121.045 -136.825 120.265 -136.051 119.697L-55.9963 61.1392C-55.3135 60.6425 -54.5132 60.3291 -53.6704 60.2283C-52.8277 60.1276 -51.9702 60.2427 -51.1784 60.563C-50.3866 60.8848 -49.6867 61.4008 -49.1439 62.0628C-48.6012 62.7248 -48.2333 63.5113 -48.0748 64.3486L-33.039 144.179C-32.8863 144.992 -32.9361 145.828 -33.1842 146.612C-33.4322 147.396 -33.8707 148.104 -34.461 148.674C-35.0509 149.244 -35.7748 149.658 -36.5684 149.879C-37.362 150.1 -38.2006 150.12 -39.0096 149.939L-134.095 128.661C-134.956 128.465 -135.754 128.047 -136.409 127.448ZM-56.44 73.9879L-121.115 121.3L-44.3022 138.485L-56.44 73.9879Z" fill="#FDBFBC"/>
<path d="M170.087 407.24C169.308 406.529 168.768 405.594 168.545 404.568C168.336 403.622 168.405 402.639 168.742 401.739C169.079 400.838 169.67 400.057 170.444 399.489L250.493 340.926C251.176 340.43 251.977 340.116 252.819 340.015C253.662 339.915 254.52 340.03 255.311 340.35C256.103 340.672 256.803 341.188 257.346 341.85C257.889 342.512 258.256 343.298 258.415 344.136L273.456 423.971C273.605 424.782 273.553 425.614 273.305 426.395C273.056 427.175 272.619 427.88 272.031 428.448C271.441 429.018 270.717 429.432 269.923 429.653C269.13 429.874 268.291 429.894 267.482 429.713L172.397 408.435C171.538 408.244 170.742 407.832 170.087 407.24ZM250.055 353.78L185.38 401.093L262.193 418.277L250.055 353.78Z" fill="#FDBFBC"/>
<path d="M140.052 312.992L135.27 248.232L146.044 247.588L150.824 312.347L140.052 312.992ZM138.576 251.128L142.904 309.728L147.513 309.461L143.192 250.853L138.576 251.128Z" fill="#BDEBE6"/>
<path d="M31.4372 136.779C31.9503 136.349 32.5501 136.033 33.1974 135.852C33.8447 135.671 34.5248 135.63 35.1931 135.731C39.7926 136.398 44.2266 137.968 48.2385 140.351C52.2503 142.735 55.7602 145.883 58.5649 149.614C61.3892 153.33 63.4554 157.559 64.6438 162.056C65.8321 166.553 66.1191 171.228 65.488 175.811C64.2331 185.064 59.349 193.389 51.9076 198.961C44.4662 204.533 35.0756 206.895 25.7967 205.53C24.5325 205.342 23.3877 204.661 22.614 203.637C21.8402 202.613 21.5007 201.329 21.6701 200.068C21.7542 199.443 21.9608 198.843 22.2783 198.301C22.5957 197.76 23.0177 197.287 23.5201 196.911C24.0225 196.535 24.5956 196.262 25.2065 196.109C25.8175 195.956 26.4543 195.924 27.0808 196.017C30.4217 196.52 33.82 196.356 37.079 195.537C40.3381 194.717 43.3933 193.258 46.0679 191.243C48.7567 189.241 51.0143 186.721 52.7101 183.828C54.4059 180.934 55.5062 177.726 55.9475 174.388C56.4012 171.055 56.1886 167.656 55.322 164.387C54.4553 161.118 52.9518 158.044 50.8982 155.342C48.8571 152.627 46.3034 150.335 43.3845 148.6C40.4656 146.865 37.2395 145.721 33.8927 145.233C33.2663 145.141 32.6626 144.926 32.1159 144.602C31.5693 144.277 31.0905 143.849 30.7068 143.342C30.3231 142.835 30.0421 142.259 29.8798 141.646C29.7175 141.034 29.6772 140.397 29.761 139.772C29.9271 138.596 30.5243 137.53 31.4372 136.779Z" fill="#937AB9"/>
<path d="M-136.409 127.448C-137.188 126.737 -137.727 125.802 -137.95 124.776C-138.159 123.83 -138.09 122.847 -137.754 121.946C-137.417 121.045 -136.825 120.265 -136.051 119.697L-55.9963 61.1392C-55.3135 60.6425 -54.5132 60.3291 -53.6704 60.2283C-52.8277 60.1276 -51.9702 60.2427 -51.1784 60.563C-50.3866 60.8848 -49.6867 61.4008 -49.1439 62.0628C-48.6012 62.7248 -48.2333 63.5113 -48.0748 64.3486L-33.039 144.179C-32.8863 144.992 -32.9361 145.828 -33.1842 146.612C-33.4322 147.396 -33.8707 148.104 -34.461 148.674C-35.0509 149.244 -35.7748 149.658 -36.5684 149.879C-37.362 150.1 -38.2006 150.12 -39.0096 149.939L-134.095 128.661C-134.956 128.465 -135.754 128.047 -136.409 127.448ZM-56.44 73.9879L-121.115 121.3L-44.3022 138.485L-56.44 73.9879Z" fill="#FDBFBC"/>
</svg>
