<svg width="167" height="52" fill="none" xmlns="http://www.w3.org/2000/svg"><path d="M79.176 33.66c0-.967-.362-1.753-1.087-2.357-.695-.605-1.586-1.149-2.673-1.632a56.678 56.678 0 0 0-3.488-1.541 20.655 20.655 0 0 1-3.488-1.95 10.675 10.675 0 0 1-2.673-2.9c-.695-1.149-1.042-2.615-1.042-4.398 0-1.54.257-2.87.77-3.989a7.583 7.583 0 0 1 2.174-2.855c.967-.756 2.1-1.315 3.398-1.678 1.299-.362 2.749-.544 4.35-.544 1.841 0 3.578.167 5.209.499 1.63.302 2.975.755 4.032 1.36l-1.948 5.213c-.665-.423-1.661-.801-2.99-1.133-1.329-.363-2.764-.544-4.304-.544-1.45 0-2.567.287-3.352.86-.755.575-1.133 1.346-1.133 2.313 0 .906.348 1.662 1.042 2.266.725.605 1.616 1.164 2.673 1.677 1.087.514 2.25 1.043 3.488 1.587a17.156 17.156 0 0 1 3.489 1.994 9.292 9.292 0 0 1 2.672 2.856c.725 1.118 1.088 2.524 1.088 4.216 0 1.692-.287 3.158-.861 4.397a8.025 8.025 0 0 1-2.356 3.037c-.996.816-2.22 1.42-3.67 1.813-1.419.393-2.99.59-4.71.59-2.266 0-4.26-.212-5.98-.635-1.722-.423-2.99-.846-3.806-1.27l1.993-5.303c.333.181.755.378 1.269.59.543.21 1.147.407 1.812.589a21.1 21.1 0 0 0 2.084.453c.755.12 1.525.181 2.31.181 1.843 0 3.247-.302 4.213-.906.997-.635 1.495-1.587 1.495-2.856zM87.026 19.517h3.126v-4.261l5.89-1.677v5.938h5.526v4.986h-5.527v8.703c0 1.572.151 2.705.453 3.4.332.665.936.997 1.812.997.604 0 1.118-.06 1.54-.18.453-.122.952-.303 1.495-.545l1.042 4.533c-.815.393-1.766.725-2.854.997-1.087.272-2.19.408-3.307.408-2.084 0-3.624-.528-4.62-1.586-.967-1.088-1.45-2.856-1.45-5.304V24.503h-3.126v-4.986zM105.04 20.831c1.208-.543 2.642-.966 4.303-1.269a26.503 26.503 0 0 1 5.21-.498c1.571 0 2.884.196 3.941.589 1.057.363 1.888.891 2.492 1.587.634.695 1.072 1.526 1.314 2.493.272.967.407 2.055.407 3.263 0 1.33-.045 2.675-.135 4.035a88.75 88.75 0 0 0-.182 3.943c0 1.3.046 2.57.136 3.808.091 1.209.317 2.357.68 3.445h-4.802l-.952-3.128h-.226c-.604.937-1.45 1.753-2.537 2.448-1.057.665-2.431.997-4.123.997-1.057 0-2.008-.15-2.854-.453a6.645 6.645 0 0 1-2.174-1.36 6.505 6.505 0 0 1-1.404-2.085c-.333-.816-.499-1.723-.499-2.72 0-1.39.302-2.553.906-3.49.635-.967 1.525-1.738 2.673-2.312 1.178-.604 2.567-1.012 4.168-1.224 1.631-.242 3.443-.317 5.436-.226.212-1.693.091-2.901-.362-3.627-.453-.755-1.465-1.133-3.035-1.133-1.178 0-2.432.12-3.761.363-1.298.241-2.37.559-3.216.951l-1.404-4.397zm7.474 16.863c1.178 0 2.115-.257 2.809-.77.695-.544 1.208-1.119 1.54-1.723v-2.946a16.425 16.425 0 0 0-2.718-.046c-.845.06-1.6.197-2.265.408-.664.212-1.193.514-1.585.907-.393.393-.589.891-.589 1.496 0 .846.241 1.51.725 1.994.513.453 1.208.68 2.083.68zM143.687 40.777c-.906.664-2.009 1.163-3.307 1.495a14.274 14.274 0 0 1-3.942.544c-1.812 0-3.352-.287-4.621-.86-1.238-.575-2.25-1.376-3.035-2.403-.785-1.058-1.359-2.327-1.721-3.808-.332-1.48-.499-3.113-.499-4.896 0-3.837.861-6.784 2.583-8.839 1.721-2.085 4.228-3.128 7.52-3.128 1.661 0 2.99.136 3.986.408a13.5 13.5 0 0 1 2.764 1.043l-1.405 4.805a11.626 11.626 0 0 0-2.083-.77c-.665-.182-1.435-.273-2.311-.273-1.631 0-2.869.544-3.715 1.632-.845 1.058-1.268 2.765-1.268 5.122 0 .967.106 1.859.317 2.675.211.816.529 1.526.951 2.13a4.724 4.724 0 0 0 1.631 1.45c.695.333 1.495.5 2.401.5.997 0 1.843-.121 2.537-.363a9.73 9.73 0 0 0 1.858-.952l1.359 4.488zM154.723 32.798h-1.585v9.384h-5.89V10.45h5.89v18.721l1.359-.634 5.164-9.021h6.478l-5.436 8.613-2.31 1.722 2.491 1.768L167 42.182h-6.75l-5.527-9.384z" fill="#000"/><rect opacity=".5" x="47.045" y="23.522" width="33.266" height="33.266" rx="5" transform="rotate(135 47.045 23.522)" fill="#FF9100"/><rect opacity=".5" x="51.633" y="28.111" width="33.266" height="33.266" rx="5" transform="rotate(135 51.633 28.11)" fill="#FF9100"/></svg>