<svg width="111" height="35" fill="none" xmlns="http://www.w3.org/2000/svg"><path d="M52.062 22.36c0-.64-.24-1.16-.72-1.56-.46-.4-1.05-.76-1.77-1.08-.7-.34-1.47-.68-2.31-1.02-.82-.36-1.59-.79-2.31-1.29-.7-.52-1.29-1.16-1.77-1.92-.46-.76-.69-1.73-.69-2.91 0-1.02.17-1.9.51-2.64.34-.76.82-1.39 1.44-1.89.64-.5 1.39-.87 2.25-1.11.86-.24 1.82-.36 2.88-.36 1.22 0 2.37.11 3.45.33 1.08.2 1.97.5 2.67.9l-1.29 3.45c-.44-.28-1.1-.53-1.98-.75-.88-.24-1.83-.36-2.85-.36-.96 0-1.7.19-2.22.57-.5.38-.75.89-.75 1.53 0 .6.23 1.1.69 1.5.48.4 1.07.77 1.77 1.11.72.34 1.49.69 2.31 1.05.84.36 1.61.8 2.31 1.32.72.5 1.31 1.13 1.77 1.89.48.74.72 1.67.72 2.79s-.19 2.09-.57 2.91c-.36.8-.88 1.47-1.56 2.01-.66.54-1.47.94-2.43 1.2-.94.26-1.98.39-3.12.39-1.5 0-2.82-.14-3.96-.42-1.14-.28-1.98-.56-2.52-.84l1.32-3.51c.22.12.5.25.84.39.36.14.76.27 1.2.39.44.12.9.22 1.38.3.5.08 1.01.12 1.53.12 1.22 0 2.15-.2 2.79-.6.66-.42.99-1.05.99-1.89zM57.26 13h2.07v-2.82l3.9-1.11V13h3.66v3.3h-3.66v5.76c0 1.04.1 1.79.3 2.25.22.44.62.66 1.2.66.4 0 .74-.04 1.02-.12.3-.08.63-.2.99-.36l.69 3c-.54.26-1.17.48-1.89.66-.72.18-1.45.27-2.19.27-1.38 0-2.4-.35-3.06-1.05-.64-.72-.96-1.89-.96-3.51V16.3h-2.07V13zM69.19 13.87c.8-.36 1.75-.64 2.85-.84 1.1-.22 2.25-.33 3.45-.33 1.04 0 1.91.13 2.61.39.7.24 1.25.59 1.65 1.05.42.46.71 1.01.87 1.65.18.64.27 1.36.27 2.16 0 .88-.03 1.77-.09 2.67-.06.88-.1 1.75-.12 2.61 0 .86.03 1.7.09 2.52.06.8.21 1.56.45 2.28h-3.18l-.63-2.07h-.15c-.4.62-.96 1.16-1.68 1.62-.7.44-1.61.66-2.73.66-.7 0-1.33-.1-1.89-.3-.56-.22-1.04-.52-1.44-.9-.4-.4-.71-.86-.93-1.38a4.73 4.73 0 0 1-.33-1.8c0-.92.2-1.69.6-2.31.42-.64 1.01-1.15 1.77-1.53.78-.4 1.7-.67 2.76-.81 1.08-.16 2.28-.21 3.6-.15.14-1.12.06-1.92-.24-2.4-.3-.5-.97-.75-2.01-.75-.78 0-1.61.08-2.49.24-.86.16-1.57.37-2.13.63l-.93-2.91zm4.95 11.16c.78 0 1.4-.17 1.86-.51.46-.36.8-.74 1.02-1.14v-1.95c-.62-.06-1.22-.07-1.8-.03-.56.04-1.06.13-1.5.27-.44.14-.79.34-1.05.6-.26.26-.39.59-.39.99 0 .56.16 1 .48 1.32.34.3.8.45 1.38.45zM94.782 27.07c-.6.44-1.33.77-2.19.99-.84.24-1.71.36-2.61.36-1.2 0-2.22-.19-3.06-.57-.82-.38-1.49-.91-2.01-1.59-.52-.7-.9-1.54-1.14-2.52-.22-.98-.33-2.06-.33-3.24 0-2.54.57-4.49 1.71-5.85 1.14-1.38 2.8-2.07 4.98-2.07 1.1 0 1.98.09 2.64.27.68.18 1.29.41 1.83.69l-.93 3.18c-.46-.22-.92-.39-1.38-.51a5.84 5.84 0 0 0-1.53-.18c-1.08 0-1.9.36-2.46 1.08-.56.7-.84 1.83-.84 3.39 0 .64.07 1.23.21 1.77.14.54.35 1.01.63 1.41.28.4.64.72 1.08.96.46.22.99.33 1.59.33.66 0 1.22-.08 1.68-.24.46-.18.87-.39 1.23-.63l.9 2.97zM102.091 21.79h-1.05V28h-3.9V7h3.9v12.39l.9-.42 3.42-5.97h4.29l-3.6 5.7-1.53 1.14 1.65 1.17 4.05 6.99h-4.47l-3.66-6.21z" fill="#504A62"/><rect opacity=".5" x="30.99" y="15.495" width="21.913" height="21.913" rx="5" transform="rotate(135 30.99 15.495)" fill="#FFBE4D"/><rect opacity=".5" x="34.012" y="18.517" width="21.913" height="21.913" rx="5" transform="rotate(135 34.012 18.517)" fill="#E89C38"/></svg>