<svg width="396" height="768" viewBox="0 0 396 768" fill="none" xmlns="http://www.w3.org/2000/svg">
<path d="M388.25 561.745L373.269 510.243L381.841 507.751L396.82 559.252L388.25 561.745ZM376.431 511.98L389.988 558.583L393.656 557.524L380.103 510.913L376.431 511.98Z" fill="#BDEBE6"/>
<path d="M269.72 438.695C270.059 438.253 270.488 437.888 270.978 437.623C271.469 437.359 272.009 437.201 272.565 437.16C276.384 436.859 280.224 437.317 283.864 438.51C287.505 439.703 290.872 441.606 293.772 444.11C296.684 446.597 299.074 449.638 300.804 453.055C302.533 456.473 303.567 460.2 303.846 464.02C304.424 471.728 301.92 479.351 296.884 485.215C291.848 491.079 284.691 494.706 276.984 495.299C275.933 495.378 274.895 495.037 274.096 494.351C273.297 493.665 272.803 492.689 272.723 491.639C272.683 491.118 272.746 490.595 272.909 490.099C273.072 489.603 273.33 489.144 273.67 488.748C274.01 488.353 274.425 488.027 274.891 487.792C275.356 487.556 275.864 487.415 276.384 487.375C279.161 487.17 281.87 486.417 284.354 485.159C286.838 483.9 289.048 482.162 290.856 480.045C292.678 477.935 294.063 475.484 294.932 472.836C295.801 470.187 296.136 467.392 295.918 464.613C295.711 461.836 294.956 459.128 293.697 456.644C292.437 454.16 290.699 451.95 288.581 450.141C286.471 448.32 284.021 446.935 281.372 446.066C278.723 445.197 275.929 444.862 273.149 445.079C272.629 445.119 272.106 445.056 271.61 444.894C271.114 444.732 270.655 444.473 270.259 444.133C269.863 443.794 269.538 443.379 269.302 442.914C269.066 442.448 268.924 441.941 268.884 441.42C268.816 440.44 269.114 439.468 269.72 438.695Z" fill="#937AB9"/>
<path d="M132.431 461.323C131.682 460.891 131.087 460.234 130.731 459.445C130.4 458.718 130.287 457.912 130.403 457.122C130.52 456.332 130.862 455.593 131.388 454.993L185.803 393.023C186.267 392.493 186.858 392.09 187.521 391.852C188.184 391.614 188.897 391.549 189.592 391.663C190.285 391.778 190.937 392.068 191.488 392.503C192.038 392.939 192.47 393.508 192.741 394.156L218.551 455.948C218.814 456.577 218.917 457.262 218.852 457.941C218.787 458.62 218.555 459.272 218.178 459.84C217.801 460.41 217.289 460.877 216.687 461.2C216.086 461.524 215.414 461.693 214.732 461.695L134.503 461.88C133.775 461.879 133.061 461.687 132.431 461.323ZM187.652 403.49L143.692 453.558L208.502 453.404L187.652 403.49Z" fill="#FDBFBC"/>
<path d="M361.865 304.848L327.029 299.302L366.643 277.499L361.865 304.848Z" fill="#BDEBE6"/>
<path d="M388.25 561.745L373.269 510.243L381.841 507.751L396.82 559.252L388.25 561.745ZM376.431 511.98L389.988 558.583L393.656 557.524L380.103 510.913L376.431 511.98Z" fill="#BDEBE6"/>
<path d="M409.928 510.989C411.876 507.997 411.031 503.992 408.039 502.043C405.047 500.094 401.042 500.939 399.094 503.931C397.145 506.923 397.99 510.928 400.982 512.877C403.974 514.826 407.979 513.98 409.928 510.989Z" fill="#E89C38"/>
<path d="M269.72 438.695C270.059 438.253 270.488 437.888 270.978 437.623C271.469 437.359 272.009 437.201 272.565 437.16C276.384 436.859 280.224 437.317 283.864 438.51C287.505 439.703 290.872 441.606 293.772 444.11C296.684 446.597 299.074 449.638 300.804 453.055C302.533 456.473 303.567 460.2 303.846 464.02C304.424 471.728 301.92 479.351 296.884 485.215C291.848 491.079 284.691 494.706 276.984 495.299C275.933 495.378 274.895 495.037 274.096 494.351C273.297 493.665 272.803 492.689 272.723 491.639C272.683 491.118 272.746 490.595 272.909 490.099C273.072 489.603 273.33 489.144 273.67 488.748C274.01 488.353 274.425 488.027 274.891 487.792C275.356 487.556 275.864 487.415 276.384 487.375C279.161 487.17 281.87 486.417 284.354 485.159C286.838 483.9 289.048 482.162 290.856 480.045C292.678 477.935 294.063 475.484 294.932 472.836C295.801 470.187 296.136 467.392 295.918 464.613C295.711 461.836 294.956 459.128 293.697 456.644C292.437 454.16 290.699 451.95 288.581 450.141C286.471 448.32 284.021 446.935 281.372 446.066C278.723 445.197 275.929 444.862 273.149 445.079C272.629 445.119 272.106 445.056 271.61 444.894C271.114 444.732 270.655 444.473 270.259 444.133C269.863 443.794 269.538 443.379 269.302 442.914C269.066 442.448 268.924 441.941 268.884 441.42C268.816 440.44 269.114 439.468 269.72 438.695Z" fill="#937AB9"/>
<path d="M320.265 654.245C308.892 666.451 309.567 685.564 321.772 696.937C333.978 708.31 353.092 707.635 364.464 695.429C375.837 683.224 375.162 664.11 362.956 652.737C350.751 641.365 331.637 642.04 320.265 654.245Z" fill="#E89C38"/>
<path d="M317.07 691.697C316.113 691.211 315.002 691.125 313.982 691.458C312.961 691.79 312.114 692.514 311.627 693.471C311.142 694.428 311.057 695.539 311.389 696.559C311.721 697.579 312.445 698.426 313.401 698.914C314.043 699.239 314.76 699.387 315.478 699.342C316.257 699.061 317.026 698.764 317.792 698.447C318.232 698.089 318.593 697.643 318.85 697.137C319.334 696.18 319.419 695.069 319.085 694.049C318.752 693.029 318.027 692.183 317.07 691.697Z" fill="#FFBE4D"/>
<path d="M318.685 679.583C318.2 680.541 318.114 681.651 318.447 682.671C318.779 683.692 319.503 684.539 320.459 685.026C321.416 685.511 322.527 685.596 323.547 685.263C324.568 684.93 325.414 684.206 325.901 683.25C326.387 682.292 326.473 681.181 326.14 680.16C325.807 679.14 325.082 678.293 324.125 677.807C323.168 677.321 322.057 677.236 321.037 677.569C320.017 677.902 319.171 678.627 318.685 679.583Z" fill="#FFBE4D"/>
<path d="M325.747 665.695C325.261 666.653 325.175 667.764 325.508 668.785C325.842 669.805 326.566 670.652 327.523 671.138C327.997 671.379 328.514 671.525 329.044 671.566C329.574 671.607 330.107 671.544 330.612 671.379C331.118 671.214 331.586 670.952 331.99 670.606C332.393 670.26 332.725 669.839 332.966 669.365C333.452 668.408 333.538 667.297 333.206 666.276C332.873 665.256 332.149 664.409 331.193 663.922C330.235 663.436 329.124 663.349 328.103 663.682C327.082 664.015 326.234 664.739 325.747 665.695Z" fill="#FFBE4D"/>
<path d="M332.811 651.808C332.57 652.282 332.425 652.798 332.384 653.329C332.343 653.859 332.406 654.392 332.571 654.897C332.736 655.403 332.999 655.871 333.345 656.274C333.691 656.678 334.113 657.01 334.587 657.25C335.545 657.736 336.655 657.822 337.676 657.49C338.696 657.157 339.543 656.433 340.03 655.477C340.515 654.52 340.601 653.409 340.269 652.389C339.936 651.368 339.213 650.522 338.257 650.034C337.299 649.548 336.188 649.462 335.167 649.794C334.146 650.127 333.298 650.851 332.811 651.808Z" fill="#FFBE4D"/>
<path d="M339.875 637.917C339.389 638.874 339.304 639.985 339.636 641.005C339.969 642.025 340.692 642.872 341.648 643.36C342.605 643.845 343.716 643.931 344.736 643.598C345.756 643.266 346.603 642.542 347.091 641.586C347.349 641.081 347.496 640.526 347.523 639.959C347.329 639.15 347.116 638.351 346.885 637.562C346.495 636.954 345.95 636.462 345.305 636.138C344.348 635.657 343.24 635.574 342.223 635.907C341.205 636.241 340.361 636.963 339.875 637.917Z" fill="#FFBE4D"/>
<path d="M327.543 692.829C327.482 692.944 327.429 693.062 327.384 693.184C328.524 692.381 329.635 691.532 330.717 690.637C330.047 690.709 329.406 690.948 328.851 691.331C328.297 691.713 327.847 692.229 327.543 692.829Z" fill="#FFBE4D"/>
<path d="M340.053 677.165C339.096 676.679 337.985 676.594 336.965 676.926C335.945 677.259 335.098 677.982 334.61 678.938C334.125 679.896 334.04 681.007 334.373 682.027C334.706 683.047 335.43 683.894 336.387 684.381C336.533 684.454 336.683 684.518 336.837 684.573C338.521 682.594 340.049 680.488 341.407 678.273C341.046 677.807 340.585 677.426 340.059 677.158L340.053 677.165Z" fill="#FFBE4D"/>
<path d="M347.117 663.277C346.16 662.792 345.049 662.706 344.029 663.038C343.009 663.371 342.162 664.094 341.674 665.05C341.189 666.008 341.104 667.118 341.436 668.138C341.768 669.159 342.492 670.006 343.448 670.493C343.975 670.761 344.555 670.91 345.146 670.929C346.134 668.525 346.936 666.048 347.545 663.522C347.409 663.43 347.269 663.346 347.123 663.27L347.117 663.277Z" fill="#FFBE4D"/>
<path d="M348.832 655.016C348.923 653.618 348.95 652.219 348.926 650.825C348.856 650.935 348.793 651.047 348.733 651.163C348.427 651.762 348.276 652.429 348.293 653.102C348.311 653.775 348.496 654.433 348.832 655.016Z" fill="#FFBE4D"/>
<path d="M261.973 681.167C261.259 680.805 260.455 680.662 259.66 680.756C258.866 680.85 258.117 681.177 257.508 681.695C259.104 683.88 260.874 685.931 262.802 687.83C263.192 687.491 263.513 687.078 263.747 686.616C263.988 686.142 264.134 685.625 264.176 685.094C264.217 684.564 264.154 684.03 263.989 683.524C263.824 683.018 263.561 682.55 263.215 682.145C262.87 681.741 262.447 681.408 261.973 681.167Z" fill="#FFBE4D"/>
<path d="M270.811 672.716C271.296 671.759 271.381 670.649 271.049 669.628C270.717 668.608 269.993 667.761 269.037 667.273C268.08 666.788 266.969 666.703 265.949 667.035C264.929 667.367 264.082 668.091 263.594 669.047C263.109 670.004 263.023 671.115 263.356 672.135C263.688 673.155 264.412 674.002 265.368 674.49C266.325 674.976 267.436 675.062 268.456 674.729C269.477 674.397 270.324 673.673 270.811 672.716Z" fill="#FFBE4D"/>
<path d="M277.876 658.828C278.361 657.871 278.446 656.76 278.114 655.74C277.781 654.72 277.058 653.873 276.102 653.385C275.145 652.9 274.034 652.814 273.014 653.147C271.994 653.479 271.147 654.203 270.659 655.159C270.174 656.116 270.088 657.227 270.421 658.247C270.753 659.267 271.477 660.114 272.433 660.602C273.39 661.087 274.5 661.173 275.521 660.84C276.541 660.508 277.388 659.784 277.876 658.828Z" fill="#FFBE4D"/>
<path d="M284.94 644.94C285.425 643.983 285.51 642.872 285.177 641.852C284.844 640.831 284.12 639.985 283.163 639.498C282.206 639.012 281.095 638.925 280.075 639.258C279.054 639.59 278.207 640.315 277.72 641.271C277.235 642.228 277.149 643.339 277.482 644.359C277.814 645.379 278.538 646.226 279.494 646.714C280.451 647.2 281.563 647.286 282.584 646.954C283.605 646.621 284.452 645.897 284.94 644.94Z" fill="#FFBE4D"/>
<path d="M292 631.05C292.241 630.576 292.387 630.059 292.428 629.529C292.469 628.999 292.406 628.466 292.241 627.961C292.076 627.455 291.814 626.987 291.468 626.583C291.123 626.18 290.701 625.848 290.227 625.607C289.27 625.122 288.159 625.036 287.139 625.368C286.118 625.701 285.272 626.424 284.784 627.38C284.299 628.338 284.214 629.449 284.547 630.469C284.88 631.489 285.604 632.336 286.561 632.823C287.517 633.308 288.627 633.394 289.647 633.061C290.667 632.729 291.513 632.005 292 631.05Z" fill="#FFBE4D"/>
<path d="M299.064 617.156C299.55 616.199 299.635 615.088 299.303 614.068C298.97 613.047 298.247 612.201 297.291 611.713C296.333 611.228 295.223 611.143 294.202 611.476C293.182 611.809 292.335 612.533 291.848 613.49C291.363 614.447 291.277 615.557 291.61 616.578C291.942 617.598 292.666 618.445 293.622 618.932C294.579 619.417 295.69 619.503 296.71 619.169C297.731 618.836 298.577 618.112 299.064 617.156Z" fill="#FFBE4D"/>
<path d="M300.68 605.047C301.637 605.533 302.748 605.619 303.769 605.287C304.789 604.954 305.636 604.23 306.123 603.274C306.358 602.812 306.501 602.31 306.545 601.794C303.876 601.356 301.176 601.134 298.471 601.131C298.412 601.929 298.59 602.727 298.983 603.423C299.376 604.12 299.967 604.685 300.68 605.047Z" fill="#FFBE4D"/>
<path d="M279.669 685.959C280.155 685.002 280.241 683.891 279.909 682.87C279.576 681.85 278.852 681.003 277.895 680.516C276.938 680.031 275.828 679.945 274.807 680.278C273.787 680.61 272.94 681.334 272.453 682.29C271.967 683.247 271.882 684.357 272.214 685.378C272.547 686.398 273.27 687.245 274.226 687.732C275.183 688.218 276.294 688.303 277.314 687.971C278.334 687.638 279.181 686.915 279.669 685.959Z" fill="#FFBE4D"/>
<path d="M279.51 668.399C279.025 669.356 278.939 670.467 279.272 671.487C279.604 672.507 280.327 673.354 281.283 673.842C282.241 674.327 283.352 674.412 284.372 674.079C285.392 673.746 286.239 673.022 286.726 672.065C287.212 671.108 287.298 669.997 286.964 668.976C286.631 667.956 285.907 667.109 284.95 666.623C283.993 666.137 282.882 666.051 281.862 666.384C280.842 666.718 279.996 667.442 279.51 668.399Z" fill="#FFBE4D"/>
<path d="M286.571 654.511C286.086 655.469 286 656.58 286.333 657.6C286.666 658.621 287.391 659.467 288.348 659.954C288.822 660.195 289.339 660.34 289.869 660.382C290.399 660.423 290.931 660.359 291.437 660.195C291.942 660.03 292.41 659.767 292.814 659.422C293.218 659.076 293.55 658.654 293.791 658.18C294.277 657.223 294.363 656.113 294.03 655.092C293.698 654.071 292.974 653.225 292.017 652.738C291.06 652.251 289.949 652.165 288.927 652.498C287.906 652.83 287.059 653.554 286.571 654.511Z" fill="#FFBE4D"/>
<path d="M293.636 640.623C293.15 641.581 293.064 642.692 293.397 643.712C293.73 644.733 294.455 645.58 295.412 646.066C296.369 646.552 297.48 646.638 298.501 646.306C299.521 645.973 300.368 645.249 300.855 644.293C301.34 643.335 301.426 642.225 301.093 641.205C300.761 640.184 300.037 639.337 299.081 638.85C298.124 638.364 297.013 638.277 295.992 638.61C294.971 638.942 294.123 639.667 293.636 640.623Z" fill="#FFBE4D"/>
<path d="M307.923 630.407C308.408 629.45 308.494 628.34 308.161 627.319C307.829 626.299 307.105 625.452 306.149 624.964C305.192 624.479 304.081 624.393 303.06 624.726C302.04 625.059 301.193 625.784 300.707 626.741C300.221 627.698 300.134 628.809 300.467 629.83C300.8 630.85 301.524 631.697 302.48 632.184C303.438 632.669 304.548 632.754 305.569 632.421C306.589 632.088 307.436 631.364 307.923 630.407Z" fill="#FFBE4D"/>
<path d="M314.971 616.52C315.456 615.563 315.542 614.452 315.209 613.432C314.875 612.411 314.151 611.565 313.195 611.078C312.238 610.592 311.127 610.506 310.106 610.838C309.086 611.171 308.239 611.895 307.752 612.851C307.267 613.808 307.181 614.919 307.514 615.939C307.846 616.96 308.57 617.806 309.526 618.294C310.483 618.78 311.594 618.866 312.615 618.534C313.636 618.201 314.484 617.477 314.971 616.52Z" fill="#FFBE4D"/>
<path d="M253.099 646.224C253.584 645.267 253.67 644.155 253.337 643.135C253.004 642.114 252.279 641.268 251.322 640.781C250.604 640.414 249.792 640.271 248.992 640.371C248.403 642.907 248.012 645.484 247.821 648.08C248.77 648.509 249.849 648.556 250.832 648.21C251.815 647.864 252.627 647.153 253.099 646.224Z" fill="#FFBE4D"/>
<path d="M254.711 634.113C255.669 634.598 256.779 634.683 257.8 634.35C258.82 634.017 259.667 633.293 260.154 632.336C260.64 631.379 260.726 630.269 260.393 629.248C260.061 628.227 259.337 627.381 258.38 626.894C257.676 626.535 256.882 626.391 256.097 626.478C255.311 626.565 254.568 626.879 253.959 627.383C253.701 627.854 253.439 628.319 253.193 628.799C252.947 629.278 252.728 629.769 252.501 630.255C252.452 631.043 252.636 631.829 253.029 632.515C253.421 633.2 254.006 633.756 254.711 634.113Z" fill="#FFBE4D"/>
<path d="M267.224 618.448C267.696 617.52 267.791 616.444 267.49 615.447C267.189 614.45 266.514 613.607 265.607 613.095C263.62 614.778 261.768 616.612 260.066 618.582C260.457 619.288 261.05 619.86 261.769 620.226C262.244 620.467 262.762 620.613 263.293 620.655C263.824 620.697 264.358 620.633 264.865 620.468C265.372 620.303 265.841 620.04 266.246 619.693C266.65 619.347 266.983 618.924 267.224 618.448Z" fill="#FFBE4D"/>
<path d="M253.116 667.912C252.232 667.46 251.213 667.352 250.254 667.606C251.096 670.145 252.137 672.614 253.366 674.99C254.018 674.601 254.548 674.035 254.892 673.358C255.133 672.884 255.278 672.367 255.32 671.836C255.361 671.306 255.297 670.773 255.132 670.267C254.967 669.761 254.704 669.293 254.358 668.889C254.012 668.485 253.59 668.153 253.116 667.912Z" fill="#FFBE4D"/>
<path d="M261.954 659.47C262.439 658.513 262.524 657.402 262.192 656.382C261.86 655.361 261.136 654.515 260.18 654.027C259.223 653.542 258.112 653.457 257.091 653.79C256.071 654.123 255.224 654.847 254.737 655.804C254.252 656.761 254.166 657.872 254.499 658.893C254.832 659.913 255.557 660.76 256.514 661.246C257.471 661.731 258.581 661.816 259.601 661.483C260.621 661.15 261.467 660.426 261.954 659.47Z" fill="#FFBE4D"/>
<path d="M269.018 645.582C269.503 644.625 269.588 643.515 269.256 642.494C268.924 641.474 268.2 640.627 267.244 640.139C266.286 639.655 265.176 639.569 264.155 639.902C263.135 640.235 262.288 640.96 261.801 641.916C261.315 642.873 261.229 643.984 261.562 645.005C261.894 646.025 262.618 646.872 263.575 647.359C264.532 647.844 265.643 647.929 266.664 647.596C267.684 647.263 268.53 646.539 269.018 645.582Z" fill="#FFBE4D"/>
<path d="M276.082 631.694C276.567 630.737 276.653 629.626 276.321 628.606C275.988 627.586 275.265 626.739 274.309 626.251C273.352 625.765 272.241 625.679 271.22 626.012C270.2 626.344 269.353 627.068 268.866 628.025C268.381 628.982 268.295 630.093 268.627 631.113C268.96 632.133 269.683 632.98 270.639 633.468C271.596 633.953 272.707 634.039 273.727 633.706C274.748 633.374 275.594 632.65 276.082 631.694Z" fill="#FFBE4D"/>
<path d="M283.146 617.806C283.631 616.849 283.716 615.738 283.383 614.718C283.05 613.697 282.326 612.851 281.37 612.364C280.413 611.878 279.302 611.791 278.281 612.124C277.261 612.457 276.414 613.181 275.927 614.137C275.441 615.094 275.355 616.205 275.687 617.226C276.02 618.246 276.744 619.093 277.7 619.58C278.658 620.066 279.769 620.152 280.79 619.82C281.811 619.487 282.659 618.763 283.146 617.806Z" fill="#FFBE4D"/>
<path d="M290.207 603.918C290.551 603.241 290.697 602.48 290.628 601.723C287.984 602.128 285.377 602.742 282.829 603.558C283.189 604.483 283.877 605.243 284.761 605.692C285.719 606.179 286.83 606.266 287.852 605.933C288.873 605.6 289.72 604.876 290.207 603.918Z" fill="#FFBE4D"/>
<path d="M286.752 693.75C285.794 693.265 284.684 693.18 283.663 693.513C282.643 693.846 281.796 694.57 281.309 695.527C280.997 696.138 280.846 696.818 280.87 697.504C280.894 698.19 281.093 698.858 281.448 699.446C283.169 700.06 284.923 700.578 286.702 700.998C287.492 700.612 288.133 699.978 288.529 699.193C289.014 698.235 289.099 697.124 288.766 696.104C288.433 695.084 287.708 694.237 286.752 693.75Z" fill="#FFBE4D"/>
<path d="M288.364 681.645C287.879 682.603 287.793 683.714 288.126 684.734C288.459 685.755 289.184 686.602 290.141 687.088C291.098 687.573 292.209 687.659 293.229 687.326C294.249 686.994 295.096 686.27 295.584 685.315C296.069 684.357 296.154 683.246 295.821 682.226C295.488 681.205 294.764 680.359 293.807 679.872C292.85 679.386 291.739 679.3 290.719 679.632C289.698 679.965 288.851 680.689 288.364 681.645Z" fill="#FFBE4D"/>
<path d="M295.429 667.751C294.944 668.709 294.859 669.819 295.192 670.84C295.525 671.86 296.249 672.707 297.206 673.194C298.163 673.68 299.274 673.766 300.294 673.433C301.315 673.101 302.161 672.377 302.648 671.42C303.134 670.463 303.219 669.352 302.887 668.332C302.554 667.312 301.831 666.465 300.875 665.977C299.917 665.491 298.806 665.405 297.785 665.738C296.764 666.07 295.917 666.794 295.429 667.751Z" fill="#FFBE4D"/>
<path d="M302.253 654.446C301.557 656.573 302.719 658.862 304.846 659.557C306.974 660.253 309.263 659.091 309.958 656.964C310.654 654.836 309.492 652.547 307.365 651.852C305.237 651.157 302.948 652.318 302.253 654.446Z" fill="#FFBE4D"/>
<path d="M309.557 639.978C309.072 640.936 308.986 642.046 309.319 643.067C309.651 644.087 310.375 644.934 311.331 645.421C312.288 645.906 313.398 645.992 314.419 645.66C315.439 645.327 316.286 644.604 316.774 643.648C317.259 642.69 317.345 641.579 317.012 640.559C316.679 639.538 315.954 638.692 314.997 638.205C314.04 637.72 312.93 637.634 311.91 637.967C310.891 638.299 310.044 639.023 309.557 639.978Z" fill="#FFBE4D"/>
<path d="M318.975 624.073C316.847 624.766 315.683 627.054 316.377 629.182C317.07 631.311 319.358 632.474 321.486 631.781C323.614 631.087 324.778 628.8 324.084 626.672C323.391 624.543 321.104 623.38 318.975 624.073Z" fill="#FFBE4D"/>
<path d="M323.689 612.202C323.204 613.16 323.119 614.271 323.452 615.291C323.785 616.311 324.509 617.158 325.466 617.645C326.423 618.131 327.534 618.217 328.555 617.883C329.575 617.55 330.422 616.826 330.908 615.869C331.307 615.086 331.439 614.194 331.284 613.329C329.897 612.142 328.447 611.031 326.939 610.002C326.255 610.063 325.598 610.297 325.029 610.682C324.461 611.067 324 611.59 323.689 612.202Z" fill="#FFBE4D"/>
<path d="M297.222 694.888C296.737 695.846 296.652 696.957 296.985 697.977C297.318 698.997 298.042 699.844 298.999 700.331C299.956 700.817 301.066 700.903 302.087 700.571C303.108 700.238 303.954 699.514 304.441 698.557C304.927 697.6 305.012 696.49 304.68 695.469C304.347 694.449 303.624 693.602 302.668 693.115C301.71 692.629 300.599 692.542 299.578 692.875C298.557 693.207 297.71 693.931 297.222 694.888Z" fill="#FFBE4D"/>
<path d="M304.287 681C303.801 681.957 303.716 683.068 304.048 684.088C304.381 685.109 305.104 685.955 306.06 686.443C307.017 686.927 308.128 687.013 309.148 686.68C310.168 686.348 311.015 685.625 311.503 684.669C311.989 683.712 312.075 682.602 311.743 681.581C311.41 680.56 310.686 679.714 309.729 679.227C308.772 678.741 307.662 678.656 306.641 678.988C305.621 679.321 304.774 680.044 304.287 681Z" fill="#FFBE4D"/>
<path d="M311.35 667.112C310.865 668.07 310.78 669.18 311.112 670.2C311.445 671.221 312.168 672.068 313.124 672.555C314.082 673.04 315.192 673.125 316.213 672.792C317.233 672.459 318.08 671.735 318.567 670.779C319.053 669.822 319.139 668.711 318.806 667.69C318.474 666.67 317.75 665.823 316.793 665.336C315.836 664.851 314.725 664.766 313.705 665.099C312.684 665.432 311.838 666.156 311.35 667.112Z" fill="#FFBE4D"/>
<path d="M318.409 653.225C317.924 654.182 317.838 655.293 318.17 656.313C318.503 657.333 319.226 658.18 320.182 658.668C321.14 659.153 322.251 659.238 323.271 658.905C324.291 658.572 325.138 657.847 325.625 656.891C326.109 655.935 326.194 654.825 325.862 653.806C325.529 652.787 324.807 651.941 323.852 651.454C323.378 651.213 322.862 651.068 322.332 651.026C321.802 650.985 321.269 651.048 320.764 651.212C320.258 651.377 319.79 651.639 319.386 651.984C318.982 652.33 318.65 652.751 318.409 653.225Z" fill="#FFBE4D"/>
<path d="M325.476 639.337C324.991 640.294 324.905 641.405 325.238 642.426C325.571 643.446 326.296 644.293 327.253 644.779C328.21 645.265 329.321 645.352 330.341 645.019C331.362 644.686 332.209 643.962 332.696 643.006C333.181 642.049 333.267 640.938 332.934 639.918C332.602 638.897 331.878 638.051 330.922 637.563C329.965 637.077 328.853 636.991 327.832 637.323C326.811 637.656 325.964 638.38 325.476 639.337Z" fill="#FFBE4D"/>
<path d="M332.54 625.455C332.055 626.412 331.968 627.523 332.301 628.544C332.633 629.564 333.358 630.411 334.314 630.898C335.271 631.383 336.382 631.469 337.402 631.136C338.422 630.804 339.269 630.08 339.757 629.124C340.242 628.167 340.328 627.057 339.995 626.036C339.663 625.016 338.939 624.169 337.983 623.682C337.026 623.196 335.916 623.111 334.895 623.443C333.875 623.776 333.028 624.499 332.54 625.455Z" fill="#FFBE4D"/>
<path d="M259.796 548.681C260.353 548.661 260.908 548.758 261.425 548.966C261.942 549.175 262.409 549.489 262.796 549.89C265.466 552.637 267.564 555.885 268.969 559.448C270.374 563.011 271.059 566.818 270.983 570.647C270.929 574.477 270.115 578.258 268.59 581.771C267.064 585.284 264.857 588.46 262.096 591.114C256.532 596.481 249.067 599.421 241.337 599.289C233.608 599.158 226.247 595.966 220.869 590.414C220.507 590.038 220.222 589.594 220.032 589.108C219.841 588.623 219.748 588.104 219.758 587.582C219.768 587.06 219.881 586.545 220.09 586.067C220.299 585.589 220.6 585.156 220.976 584.795C221.352 584.433 221.796 584.148 222.282 583.958C222.767 583.767 223.286 583.674 223.808 583.684C224.33 583.694 224.845 583.807 225.323 584.016C225.801 584.225 226.234 584.526 226.595 584.902C228.526 586.906 230.835 588.508 233.388 589.616C235.941 590.724 238.688 591.315 241.471 591.356C244.257 591.411 247.026 590.913 249.618 589.891C252.21 588.869 254.574 587.342 256.572 585.4C258.581 583.469 260.187 581.159 261.296 578.604C262.406 576.048 262.998 573.298 263.038 570.512C263.092 567.727 262.593 564.958 261.571 562.367C260.548 559.775 259.023 557.412 257.082 555.414C256.72 555.038 256.436 554.594 256.245 554.108C256.055 553.622 255.962 553.104 255.972 552.582C255.982 552.06 256.094 551.545 256.303 551.067C256.512 550.589 256.813 550.156 257.19 549.794C257.891 549.113 258.819 548.717 259.796 548.681Z" fill="#BDEBE6"/>
<path d="M167.45 593.73L177.049 573.458L156.777 563.859L147.178 584.131L167.45 593.73Z" fill="#937AB9"/>
<path d="M265.046 357.325C262.749 355.999 260.761 354.196 259.217 352.039C257.672 349.882 256.607 347.42 256.091 344.817C255.748 343.068 255.035 341.413 253.999 339.963C252.963 338.512 251.629 337.301 250.086 336.409C248.541 335.518 246.824 334.969 245.05 334.797C243.276 334.624 241.485 334.834 239.798 335.41C237.287 336.266 234.622 336.574 231.982 336.316C229.343 336.057 226.788 335.237 224.491 333.911C222.194 332.584 220.206 330.782 218.662 328.625C217.118 326.468 216.052 324.005 215.536 321.403C215.193 319.654 214.48 317.999 213.444 316.548C212.408 315.098 211.074 313.886 209.531 312.994C207.986 312.104 206.269 311.554 204.495 311.382C202.721 311.21 200.93 311.419 199.243 311.996C198.476 312.257 197.636 312.203 196.909 311.845C196.181 311.488 195.626 310.856 195.364 310.088C195.103 309.321 195.157 308.481 195.515 307.754C195.873 307.026 196.505 306.471 197.272 306.209C199.783 305.354 202.449 305.045 205.089 305.304C207.73 305.562 210.285 306.382 212.583 307.708C214.88 309.034 216.868 310.836 218.412 312.994C219.955 315.151 221.02 317.614 221.533 320.217C221.878 321.966 222.592 323.621 223.628 325.072C224.664 326.522 225.999 327.734 227.542 328.627C229.086 329.517 230.803 330.066 232.576 330.238C234.35 330.41 236.14 330.201 237.827 329.624C240.338 328.768 243.004 328.459 245.644 328.717C248.285 328.976 250.84 329.796 253.138 331.122C255.435 332.449 257.423 334.251 258.966 336.408C260.51 338.566 261.575 341.029 262.088 343.631C262.433 345.38 263.147 347.036 264.183 348.486C265.219 349.937 266.554 351.149 268.097 352.042C269.641 352.931 271.358 353.481 273.131 353.653C274.905 353.825 276.695 353.615 278.382 353.038C280.893 352.182 283.559 351.873 286.199 352.132C288.84 352.39 291.395 353.21 293.693 354.537C295.99 355.863 297.978 357.665 299.521 359.823C301.065 361.98 302.13 364.443 302.643 367.046C302.801 367.841 302.635 368.666 302.184 369.34C301.733 370.013 301.033 370.48 300.238 370.637C299.443 370.794 298.618 370.629 297.944 370.178C297.271 369.727 296.804 369.027 296.646 368.232C296.303 366.483 295.59 364.828 294.554 363.377C293.518 361.927 292.184 360.715 290.641 359.823C289.096 358.933 287.379 358.383 285.605 358.211C283.83 358.039 282.04 358.248 280.353 358.825C277.842 359.68 275.177 359.989 272.537 359.73C269.897 359.472 267.343 358.652 265.046 357.325Z" fill="#FFBE4D"/>
<path d="M256.678 371.819C254.381 370.492 252.394 368.69 250.849 366.533C249.305 364.375 248.239 361.913 247.724 359.311C247.38 357.562 246.666 355.907 245.631 354.457C244.595 353.006 243.261 351.794 241.718 350.902C240.174 350.012 238.456 349.463 236.682 349.29C234.908 349.118 233.117 349.327 231.43 349.904C228.919 350.759 226.255 351.068 223.615 350.809C220.975 350.55 218.421 349.731 216.123 348.404C213.826 347.078 211.839 345.275 210.294 343.118C208.75 340.961 207.684 338.499 207.169 335.896C206.825 334.148 206.112 332.493 205.076 331.042C204.04 329.592 202.706 328.38 201.163 327.488C199.619 326.598 197.902 326.048 196.127 325.876C194.353 325.704 192.562 325.913 190.875 326.489C190.108 326.751 189.268 326.696 188.541 326.339C187.814 325.981 187.258 325.349 186.997 324.582C186.735 323.814 186.789 322.975 187.147 322.247C187.505 321.52 188.137 320.964 188.904 320.703C191.416 319.848 194.081 319.54 196.721 319.799C199.362 320.057 201.916 320.877 204.214 322.204C206.511 323.53 208.498 325.332 210.042 327.489C211.586 329.646 212.651 332.108 213.166 334.71C213.51 336.459 214.224 338.114 215.261 339.565C216.297 341.015 217.631 342.228 219.174 343.12C220.718 344.01 222.435 344.56 224.209 344.731C225.983 344.903 227.773 344.694 229.459 344.117C231.971 343.262 234.636 342.954 237.276 343.213C239.917 343.472 242.471 344.292 244.769 345.618C247.066 346.944 249.053 348.746 250.597 350.903C252.141 353.06 253.206 355.522 253.721 358.125C254.065 359.874 254.779 361.529 255.816 362.979C256.852 364.43 258.186 365.642 259.729 366.535C261.273 367.425 262.99 367.974 264.764 368.146C266.538 368.318 268.328 368.108 270.014 367.532C272.526 366.677 275.191 366.368 277.831 366.627C280.471 366.886 283.026 367.706 285.324 369.033C287.621 370.359 289.608 372.161 291.152 374.318C292.696 376.475 293.761 378.937 294.276 381.539C294.433 382.334 294.268 383.159 293.817 383.833C293.366 384.506 292.666 384.973 291.87 385.13C291.075 385.288 290.25 385.123 289.576 384.672C288.903 384.221 288.436 383.52 288.279 382.725C287.935 380.976 287.221 379.321 286.186 377.871C285.15 376.421 283.816 375.209 282.273 374.316C280.728 373.426 279.011 372.877 277.237 372.705C275.463 372.533 273.672 372.742 271.985 373.318C269.474 374.173 266.81 374.482 264.17 374.223C261.53 373.965 258.976 373.145 256.678 371.819Z" fill="#FFBE4D"/>
<path d="M248.315 386.304C246.017 384.978 244.029 383.176 242.485 381.019C240.94 378.861 239.875 376.399 239.36 373.796C239.016 372.047 238.303 370.392 237.267 368.942C236.231 367.492 234.897 366.28 233.354 365.387C231.81 364.498 230.093 363.948 228.318 363.776C226.544 363.604 224.754 363.813 223.067 364.389C220.556 365.245 217.891 365.554 215.251 365.296C212.611 365.037 210.057 364.217 207.76 362.89C205.462 361.564 203.474 359.761 201.93 357.604C200.385 355.447 199.32 352.984 198.805 350.382C198.461 348.633 197.748 346.978 196.712 345.528C195.676 344.077 194.342 342.865 192.799 341.973C191.255 341.083 189.538 340.534 187.763 340.362C185.989 340.189 184.199 340.398 182.512 340.975C181.744 341.236 180.905 341.182 180.177 340.824C179.45 340.466 178.894 339.834 178.633 339.067C178.371 338.3 178.426 337.46 178.783 336.733C179.141 336.005 179.773 335.45 180.54 335.188C183.052 334.333 185.717 334.025 188.357 334.284C190.998 334.543 193.552 335.363 195.85 336.689C198.147 338.016 200.134 339.818 201.678 341.975C203.222 344.131 204.287 346.594 204.802 349.196C205.146 350.945 205.861 352.6 206.897 354.05C207.933 355.501 209.267 356.713 210.81 357.606C212.355 358.496 214.071 359.045 215.845 359.217C217.619 359.389 219.409 359.179 221.095 358.603C223.607 357.748 226.272 357.44 228.912 357.698C231.553 357.957 234.107 358.777 236.405 360.104C238.702 361.43 240.689 363.232 242.233 365.389C243.777 367.546 244.842 370.008 245.357 372.61C245.701 374.359 246.415 376.014 247.452 377.465C248.488 378.915 249.822 380.128 251.365 381.02C252.909 381.91 254.626 382.459 256.4 382.631C258.174 382.803 259.964 382.594 261.65 382.017C264.162 381.162 266.827 380.854 269.467 381.113C272.108 381.372 274.662 382.192 276.96 383.518C279.257 384.844 281.244 386.646 282.788 388.803C284.332 390.96 285.397 393.422 285.912 396.024C286.069 396.82 285.904 397.645 285.453 398.318C285.002 398.992 284.302 399.459 283.507 399.616C282.711 399.773 281.886 399.608 281.213 399.157C280.539 398.706 280.072 398.006 279.915 397.211C279.571 395.462 278.858 393.807 277.822 392.357C276.786 390.906 275.452 389.694 273.909 388.802C272.365 387.912 270.648 387.363 268.873 387.19C267.099 387.018 265.308 387.227 263.622 387.804C261.111 388.66 258.446 388.969 255.806 388.71C253.166 388.451 250.612 387.631 248.315 386.304Z" fill="#FFBE4D"/>
<path d="M416.589 377.685L339.745 383.356L345.415 460.2L422.259 454.53L416.589 377.685Z" fill="#FDBFBC"/>
<path d="M303.913 164.308C303.164 163.876 302.569 163.219 302.213 162.43C301.882 161.704 301.768 160.897 301.885 160.107C302.002 159.317 302.344 158.578 302.87 157.978L357.285 96.0082C357.749 95.4819 358.34 95.0823 359.001 94.8468C359.663 94.6112 360.373 94.5475 361.066 94.6617C361.759 94.777 362.411 95.0661 362.962 95.502C363.512 95.9379 363.944 96.5063 364.215 97.1542L390.033 158.933C390.295 159.562 390.399 160.247 390.334 160.926C390.268 161.605 390.037 162.258 389.659 162.826C389.282 163.395 388.77 163.862 388.169 164.185C387.568 164.509 386.896 164.679 386.213 164.68L305.985 164.866C305.257 164.865 304.543 164.673 303.913 164.308ZM359.134 106.475L315.173 156.543L379.984 156.389L359.134 106.475Z" fill="#FDBFBC"/>
<path d="M132.431 461.323C131.682 460.891 131.087 460.234 130.731 459.445C130.4 458.718 130.287 457.912 130.403 457.122C130.52 456.332 130.862 455.593 131.388 454.993L185.803 393.023C186.267 392.493 186.858 392.09 187.521 391.852C188.184 391.614 188.897 391.549 189.592 391.663C190.285 391.778 190.937 392.068 191.488 392.503C192.038 392.939 192.47 393.508 192.741 394.156L218.551 455.948C218.814 456.577 218.917 457.262 218.852 457.941C218.787 458.62 218.555 459.272 218.178 459.84C217.801 460.41 217.289 460.877 216.687 461.2C216.086 461.524 215.414 461.693 214.732 461.695L134.503 461.88C133.775 461.879 133.061 461.687 132.431 461.323ZM187.652 403.49L143.692 453.558L208.502 453.404L187.652 403.49Z" fill="#FDBFBC"/>
<path d="M331.35 225.349L349.326 220.532C349.673 220.441 349.998 220.281 350.283 220.063C350.568 219.844 350.807 219.571 350.985 219.26C351.165 218.95 351.282 218.607 351.328 218.251C351.375 217.896 351.35 217.535 351.256 217.189C351.068 216.489 350.61 215.892 349.983 215.53C349.355 215.168 348.61 215.07 347.91 215.257L329.955 220.068L325.144 202.113C324.956 201.413 324.498 200.817 323.871 200.455C323.244 200.092 322.498 199.994 321.798 200.181C321.451 200.273 321.126 200.432 320.842 200.65C320.557 200.868 320.318 201.14 320.14 201.451C319.959 201.762 319.842 202.105 319.796 202.461C319.749 202.817 319.773 203.178 319.868 203.525L324.671 221.493L306.716 226.304C306.369 226.396 306.044 226.555 305.759 226.774C305.474 226.992 305.235 227.265 305.057 227.576C304.877 227.887 304.76 228.23 304.713 228.586C304.666 228.942 304.691 229.303 304.784 229.65C304.877 229.996 305.037 230.321 305.256 230.606C305.475 230.89 305.747 231.128 306.058 231.307C306.369 231.487 306.711 231.603 307.067 231.651C307.423 231.698 307.784 231.674 308.13 231.582L326.085 226.771L330.896 244.726C330.989 245.072 331.149 245.397 331.368 245.681C331.586 245.966 331.859 246.204 332.17 246.382C332.481 246.563 332.823 246.68 333.179 246.727C333.534 246.774 333.896 246.75 334.242 246.657C334.589 246.565 334.915 246.406 335.199 246.187C335.484 245.969 335.723 245.696 335.902 245.385C336.082 245.074 336.199 244.731 336.246 244.375C336.293 244.019 336.268 243.658 336.174 243.311L331.35 225.349Z" fill="#FFBE4D"/>
<path d="M265.046 357.325C262.749 355.999 260.761 354.196 259.217 352.039C257.672 349.882 256.607 347.42 256.091 344.817C255.748 343.068 255.035 341.413 253.999 339.963C252.963 338.512 251.629 337.301 250.086 336.409C248.541 335.518 246.824 334.969 245.05 334.797C243.276 334.624 241.485 334.834 239.798 335.41C237.287 336.266 234.622 336.574 231.982 336.316C229.343 336.057 226.788 335.237 224.491 333.911C222.194 332.584 220.206 330.782 218.662 328.625C217.118 326.468 216.052 324.005 215.536 321.403C215.193 319.654 214.48 317.999 213.444 316.548C212.408 315.098 211.074 313.886 209.531 312.994C207.986 312.104 206.269 311.554 204.495 311.382C202.721 311.21 200.93 311.419 199.243 311.996C198.476 312.257 197.636 312.203 196.909 311.845C196.181 311.488 195.626 310.856 195.364 310.088C195.103 309.321 195.157 308.481 195.515 307.754C195.873 307.026 196.505 306.471 197.272 306.209C199.783 305.354 202.449 305.045 205.089 305.304C207.73 305.562 210.285 306.382 212.583 307.708C214.88 309.034 216.868 310.836 218.412 312.994C219.955 315.151 221.02 317.614 221.533 320.217C221.878 321.966 222.592 323.621 223.628 325.072C224.664 326.522 225.999 327.734 227.542 328.627C229.086 329.517 230.803 330.066 232.576 330.238C234.35 330.41 236.14 330.201 237.827 329.624C240.338 328.768 243.004 328.459 245.644 328.717C248.285 328.976 250.84 329.796 253.138 331.122C255.435 332.449 257.423 334.251 258.966 336.408C260.51 338.566 261.575 341.029 262.088 343.631C262.433 345.38 263.147 347.036 264.183 348.486C265.219 349.937 266.554 351.149 268.097 352.042C269.641 352.931 271.358 353.481 273.131 353.653C274.905 353.825 276.695 353.615 278.382 353.038C280.893 352.182 283.559 351.873 286.199 352.132C288.84 352.39 291.395 353.21 293.693 354.537C295.99 355.863 297.978 357.665 299.521 359.823C301.065 361.98 302.13 364.443 302.643 367.046C302.801 367.841 302.635 368.666 302.184 369.34C301.733 370.013 301.033 370.48 300.238 370.637C299.443 370.794 298.618 370.629 297.944 370.178C297.271 369.727 296.804 369.027 296.646 368.232C296.303 366.483 295.59 364.828 294.554 363.377C293.518 361.927 292.184 360.715 290.641 359.823C289.096 358.933 287.379 358.383 285.605 358.211C283.83 358.039 282.04 358.248 280.353 358.825C277.842 359.68 275.177 359.989 272.537 359.73C269.897 359.472 267.343 358.652 265.046 357.325Z" fill="#FFBE4D"/>
<path d="M256.678 371.819C254.381 370.492 252.394 368.69 250.849 366.533C249.305 364.375 248.239 361.913 247.724 359.311C247.38 357.562 246.666 355.907 245.631 354.457C244.595 353.006 243.261 351.794 241.718 350.902C240.174 350.012 238.456 349.463 236.682 349.29C234.908 349.118 233.117 349.327 231.43 349.904C228.919 350.759 226.255 351.068 223.615 350.809C220.975 350.55 218.421 349.731 216.123 348.404C213.826 347.078 211.839 345.275 210.294 343.118C208.75 340.961 207.684 338.499 207.169 335.896C206.825 334.148 206.112 332.493 205.076 331.042C204.04 329.592 202.706 328.38 201.163 327.488C199.619 326.598 197.902 326.048 196.127 325.876C194.353 325.704 192.562 325.913 190.875 326.489C190.108 326.751 189.268 326.696 188.541 326.339C187.814 325.981 187.258 325.349 186.997 324.582C186.735 323.814 186.789 322.975 187.147 322.247C187.505 321.52 188.137 320.964 188.904 320.703C191.416 319.848 194.081 319.54 196.721 319.799C199.362 320.057 201.916 320.877 204.214 322.204C206.511 323.53 208.498 325.332 210.042 327.489C211.586 329.646 212.651 332.108 213.166 334.71C213.51 336.459 214.224 338.114 215.261 339.565C216.297 341.015 217.631 342.228 219.174 343.12C220.718 344.01 222.435 344.56 224.209 344.731C225.983 344.903 227.773 344.694 229.459 344.117C231.971 343.262 234.636 342.954 237.276 343.213C239.917 343.472 242.471 344.292 244.769 345.618C247.066 346.944 249.053 348.746 250.597 350.903C252.141 353.06 253.206 355.522 253.721 358.125C254.065 359.874 254.779 361.529 255.816 362.979C256.852 364.43 258.186 365.642 259.729 366.535C261.273 367.425 262.99 367.974 264.764 368.146C266.538 368.318 268.328 368.108 270.014 367.532C272.526 366.677 275.191 366.368 277.831 366.627C280.471 366.886 283.026 367.706 285.324 369.033C287.621 370.359 289.608 372.161 291.152 374.318C292.696 376.475 293.761 378.937 294.276 381.539C294.433 382.334 294.268 383.159 293.817 383.833C293.366 384.506 292.666 384.973 291.87 385.13C291.075 385.288 290.25 385.123 289.576 384.672C288.903 384.221 288.436 383.52 288.279 382.725C287.935 380.976 287.221 379.321 286.186 377.871C285.15 376.421 283.816 375.209 282.273 374.316C280.728 373.426 279.011 372.877 277.237 372.705C275.463 372.533 273.672 372.742 271.985 373.318C269.474 374.173 266.81 374.482 264.17 374.223C261.53 373.965 258.976 373.145 256.678 371.819Z" fill="#FFBE4D"/>
<path d="M248.315 386.304C246.017 384.978 244.029 383.176 242.485 381.019C240.94 378.861 239.875 376.399 239.36 373.796C239.016 372.047 238.303 370.392 237.267 368.942C236.231 367.492 234.897 366.28 233.354 365.387C231.81 364.498 230.093 363.948 228.318 363.776C226.544 363.604 224.754 363.813 223.067 364.389C220.556 365.245 217.891 365.554 215.251 365.296C212.611 365.037 210.057 364.217 207.76 362.89C205.462 361.564 203.474 359.761 201.93 357.604C200.385 355.447 199.32 352.984 198.805 350.382C198.461 348.633 197.748 346.978 196.712 345.528C195.676 344.077 194.342 342.865 192.799 341.973C191.255 341.083 189.538 340.534 187.763 340.362C185.989 340.189 184.199 340.398 182.512 340.975C181.744 341.236 180.905 341.182 180.177 340.824C179.45 340.466 178.894 339.834 178.633 339.067C178.371 338.3 178.426 337.46 178.783 336.733C179.141 336.005 179.773 335.45 180.54 335.188C183.052 334.333 185.717 334.025 188.357 334.284C190.998 334.543 193.552 335.363 195.85 336.689C198.147 338.016 200.134 339.818 201.678 341.975C203.222 344.131 204.287 346.594 204.802 349.196C205.146 350.945 205.861 352.6 206.897 354.05C207.933 355.501 209.267 356.713 210.81 357.606C212.355 358.496 214.071 359.045 215.845 359.217C217.619 359.389 219.409 359.179 221.095 358.603C223.607 357.748 226.272 357.44 228.912 357.698C231.553 357.957 234.107 358.777 236.405 360.104C238.702 361.43 240.689 363.232 242.233 365.389C243.777 367.546 244.842 370.008 245.357 372.61C245.701 374.359 246.415 376.014 247.452 377.465C248.488 378.915 249.822 380.128 251.365 381.02C252.909 381.91 254.626 382.459 256.4 382.631C258.174 382.803 259.964 382.594 261.65 382.017C264.162 381.162 266.827 380.854 269.467 381.113C272.108 381.372 274.662 382.192 276.96 383.518C279.257 384.844 281.244 386.646 282.788 388.803C284.332 390.96 285.397 393.422 285.912 396.024C286.069 396.82 285.904 397.645 285.453 398.318C285.002 398.992 284.302 399.459 283.507 399.616C282.711 399.773 281.886 399.608 281.213 399.157C280.539 398.706 280.072 398.006 279.915 397.211C279.571 395.462 278.858 393.807 277.822 392.357C276.786 390.906 275.452 389.694 273.909 388.802C272.365 387.912 270.648 387.363 268.873 387.19C267.099 387.018 265.308 387.227 263.622 387.804C261.111 388.66 258.446 388.969 255.806 388.71C253.166 388.451 250.612 387.631 248.315 386.304Z" fill="#FFBE4D"/>
<path d="M303.913 164.308C303.164 163.876 302.569 163.219 302.213 162.43C301.882 161.704 301.768 160.897 301.885 160.107C302.002 159.317 302.344 158.578 302.87 157.978L357.285 96.0082C357.749 95.4819 358.34 95.0823 359.001 94.8468C359.663 94.6112 360.373 94.5475 361.066 94.6617C361.759 94.777 362.411 95.0661 362.962 95.502C363.512 95.9379 363.944 96.5063 364.215 97.1542L390.033 158.933C390.295 159.562 390.399 160.247 390.334 160.926C390.268 161.605 390.037 162.258 389.659 162.826C389.282 163.395 388.77 163.862 388.169 164.185C387.568 164.509 386.896 164.679 386.213 164.68L305.985 164.866C305.257 164.865 304.543 164.673 303.913 164.308ZM359.134 106.475L315.173 156.543L379.984 156.389L359.134 106.475Z" fill="#FDBFBC"/>
</svg>
